<svg xmlns="http://www.w3.org/2000/svg" width="247" height="65" viewBox="0 0 247 65">
  <g id="google" transform="translate(-707 -599)">
    <rect id="Rectangle_1" data-name="Rectangle 1" width="247" height="65" rx="32.5" transform="translate(707 599)" fill="#f44336"/>
    <g id="Group_1" data-name="Group 1" transform="translate(-0.235 -1)">
      <g id="Group_4" data-name="Group 4">
        <text id="Login_with_Google" data-name="Login with Google" transform="translate(849.029 638)" fill="#fff" font-size="14" font-family="Poppins-Medium, Poppins" font-weight="500"><tspan x="-62.174" y="0">Login with Google</tspan></text>
        <path id="Icon_ionic-logo-google" data-name="Icon ionic-logo-google" d="M19.172,10.111l-.08-.34h-7.4V12.9h4.422a4.426,4.426,0,0,1-4.33,3.328A5.179,5.179,0,0,1,8.3,14.843a4.975,4.975,0,0,1-1.484-3.512A5.132,5.132,0,0,1,8.27,7.823a4.958,4.958,0,0,1,3.462-1.354,4.516,4.516,0,0,1,2.946,1.148L16.9,5.4a7.877,7.877,0,0,0-5.245-2.02h0A8.108,8.108,0,0,0,5.921,5.716a8.075,8.075,0,0,0-2.265,5.62,7.994,7.994,0,0,0,2.177,5.528,8.3,8.3,0,0,0,5.987,2.429A7.385,7.385,0,0,0,17.2,17.031a7.941,7.941,0,0,0,2.066-5.5A9.16,9.16,0,0,0,19.172,10.111Z" transform="translate(740 621.618)" fill="#fff"/>
      </g>
    </g>
  </g>
</svg>
