<svg xmlns="http://www.w3.org/2000/svg" width="242" height="28" viewBox="0 0 242 28">
  <path id="circle-arrow" d="M-4297.181-878a13.579,13.579,0,0,1-5.379-1.1,13.76,13.76,0,0,1-4.392-3,13.961,13.961,0,0,1-2.962-4.45A14.067,14.067,0,0,1-4311-892a14.067,14.067,0,0,1,1.086-5.449,13.959,13.959,0,0,1,2.962-4.45,13.759,13.759,0,0,1,4.392-3,13.579,13.579,0,0,1,5.379-1.1,13.614,13.614,0,0,1,7.868,2.49,13.965,13.965,0,0,1,2.958,2.808,14.02,14.02,0,0,1,2.039,3.58H-4069v10.244h-215.316a14.029,14.029,0,0,1-2.039,3.58,13.961,13.961,0,0,1-2.958,2.808A13.612,13.612,0,0,1-4297.181-878Zm0-19.122a5.1,5.1,0,0,0-5.056,5.122,5.1,5.1,0,0,0,5.056,5.122,5.1,5.1,0,0,0,5.056-5.122A5.1,5.1,0,0,0-4297.181-897.122Z" transform="translate(4311 906)" fill="#516df2"/>
</svg>
