<svg xmlns="http://www.w3.org/2000/svg" xmlns:xlink="http://www.w3.org/1999/xlink" width="26" height="26" viewBox="0 0 26 26">
  <defs>
    <clipPath id="clip-path">
      <rect id="Rectangle_6" data-name="Rectangle 6" width="26" height="26" transform="translate(93 740)" fill="#fff" stroke="#707070" stroke-width="1"/>
    </clipPath>
  </defs>
  <g id="img-3" transform="translate(-93 -740)" clip-path="url(#clip-path)">
    <g id="food-delivery" transform="translate(93 740)">
      <path id="Path_84" data-name="Path 84" d="M10.8,3.953H9.169V3.138a.815.815,0,1,1,1.631,0v.815Z" fill="#dddaec"/>
      <g id="Group_50" data-name="Group 50">
        <path id="Path_85" data-name="Path 85" d="M18.131,12.468H1.838V11.014A7.276,7.276,0,0,1,9.114,3.738h1.74a7.276,7.276,0,0,1,7.276,7.276Z" fill="#f9f6f6"/>
        <path id="Path_86" data-name="Path 86" d="M10.855,3.738H9.668a7.276,7.276,0,0,1,7.276,7.276v1.455h1.187V11.014a7.276,7.276,0,0,0-7.276-7.276Z" fill="#dddaec"/>
      </g>
      <path id="Path_87" data-name="Path 87" d="M18.522,14.141H1.447A1.067,1.067,0,0,1,.381,13.074V11.961H19.588v1.113A1.067,1.067,0,0,1,18.522,14.141Z" fill="#26457d"/>
      <path id="Path_88" data-name="Path 88" d="M18.468,11.961v1.113A1.067,1.067,0,0,1,17.4,14.141h1.12a1.067,1.067,0,0,0,1.067-1.067V11.961Z" fill="#21386b"/>
      <g id="Group_51" data-name="Group 51">
        <path id="Path_89" data-name="Path 89" d="M17.5,18.876l-2.236-.627a.658.658,0,0,1-.474-.73l.363-2.462a.8.8,0,0,0-1.467-.546l-1.448,2.276a1.04,1.04,0,0,1-1.374.355L5.5,14.225a.7.7,0,0,0-.828,1.1l1.865,1.9A15.739,15.739,0,0,0,15.3,21.728l2.2.348v-3.2Z" fill="#f1d0a5"/>
        <path id="Path_90" data-name="Path 90" d="M16.407,18.613V21.9l1.092.173v-3.2l-1.09-.305c0,.014,0,.028,0,.042Z" fill="#f1b986"/>
      </g>
      <path id="Path_91" data-name="Path 91" d="M20.022,22.733h-2a.519.519,0,0,1-.519-.519v-3.6a.519.519,0,0,1,.519-.519h2Z" fill="#f9f6f6"/>
      <path id="Path_92" data-name="Path 92" d="M18.93,18.094h1.092v4.639H18.93Z" fill="#dddaec"/>
      <path id="Path_93" data-name="Path 93" d="M25.619,23.677h-5.4a.2.2,0,0,1-.2-.2V17.35a.2.2,0,0,1,.2-.2h5.4Z" fill="#80b4fb"/>
      <path id="Path_94" data-name="Path 94" d="M24.527,17.149h1.092v6.528H24.527Z" fill="#61a2f9"/>
      <g id="Group_52" data-name="Group 52">
        <path id="Path_95" data-name="Path 95" d="M21.348,19.96v.907a.381.381,0,0,0,.762,0V19.96a.381.381,0,0,0-.762,0Z"/>
        <path id="Path_96" data-name="Path 96" d="M25.619,16.769h-5.4a.582.582,0,0,0-.581.581v.363H18.018a.9.9,0,0,0-.869.67l-1.783-.5a.278.278,0,0,1-.2-.308l.363-2.462a1.179,1.179,0,0,0-.065-.592h3.057a1.449,1.449,0,0,0,1.448-1.448V11.96a.381.381,0,0,0-.381-.381H18.511v-.566a7.666,7.666,0,0,0-7.331-7.649V3.138a1.2,1.2,0,1,0-2.392,0v.226A7.571,7.571,0,0,0,5.8,4.109a.381.381,0,0,0,.33.686,6.831,6.831,0,0,1,2.984-.677h1.74a6.9,6.9,0,0,1,6.9,6.9v.566H2.219v-.566A6.854,6.854,0,0,1,4.9,5.555a.381.381,0,1,0-.466-.6,7.61,7.61,0,0,0-2.979,6.062v.566H.381A.381.381,0,0,0,0,11.96v1.113a1.449,1.449,0,0,0,1.448,1.448H4.139A1.058,1.058,0,0,0,4.4,15.591l1.865,1.9A16.12,16.12,0,0,0,15.238,22.1l1.9.3a.9.9,0,0,0,.879.709h1.623v.363a.582.582,0,0,0,.581.581H22.06a.381.381,0,0,0,0-.762H20.4V17.53h4.835V23.3H23.583a.381.381,0,0,0,0,.762h2.037A.381.381,0,0,0,26,23.677V17.149a.381.381,0,0,0-.381-.381ZM9.985,2.7a.435.435,0,0,1,.434.434v.219H9.55V3.138A.435.435,0,0,1,9.985,2.7ZM.762,13.074v-.733H19.207v.733a.687.687,0,0,1-.686.686H11.746a.381.381,0,0,0,0,.762h1.481l-1.311,2.061a.661.661,0,0,1-.871.225l-4.2-2.286h3.381a.381.381,0,0,0,0-.762H1.448a.687.687,0,0,1-.686-.686Zm9.968,6.765a15.332,15.332,0,0,1-3.921-2.886l-1.865-1.9a.315.315,0,0,1,.375-.5l5.363,2.917a1.425,1.425,0,0,0,1.878-.486l1.448-2.275a.42.42,0,0,1,.769.286l-.363,2.462a1.041,1.041,0,0,0,.748,1.152l1.958.549v2.466l-1.761-.279a15.331,15.331,0,0,1-4.627-1.514Zm7.288,2.514a.139.139,0,0,1-.139-.139v-3.6a.139.139,0,0,1,.139-.139h1.623v3.878H18.018Z"/>
      </g>
    </g>
  </g>
</svg>
