<svg xmlns="http://www.w3.org/2000/svg" xmlns:xlink="http://www.w3.org/1999/xlink" width="42" height="42" viewBox="0 0 42 42">
  <defs>
    <clipPath id="clip-path">
      <rect id="Rectangle_6" data-name="Rectangle 6" width="42" height="42" transform="translate(90 734)" fill="#fff" stroke="#707070" stroke-width="1"/>
    </clipPath>
  </defs>
  <g id="img-2" transform="translate(-90 -734)" clip-path="url(#clip-path)">
    <g id="submit" transform="translate(89.325 733.324)">
      <g id="Group_7" data-name="Group 7">
        <g id="Group_6" data-name="Group 6">
          <path id="Path_1" data-name="Path 1" d="M38.611,18.289H31.837V13.548h6.774Z" fill="#fe6b61"/>
        </g>
      </g>
      <g id="Group_9" data-name="Group 9">
        <g id="Group_8" data-name="Group 8">
          <path id="Path_2" data-name="Path 2" d="M21.676,16.935a4.064,4.064,0,1,1,4.064-4.064A4.068,4.068,0,0,1,21.676,16.935Z" fill="#fe6b61"/>
        </g>
      </g>
      <g id="Group_10" data-name="Group 10">
        <path id="Path_3" data-name="Path 3" d="M19.644,28.45h6.774v2.71H19.644Z" fill="#fe6b61"/>
      </g>
      <g id="Group_11" data-name="Group 11">
        <path id="Path_4" data-name="Path 4" d="M23.709,35.9H19.644a1.356,1.356,0,0,0-1.355,1.355v1.355a1.356,1.356,0,0,0,1.355,1.355h4.064a1.356,1.356,0,0,0,1.355-1.355V37.256A1.356,1.356,0,0,0,23.709,35.9Zm-4.064,2.71V37.256h4.064v1.355Z"/>
        <path id="Path_5" data-name="Path 5" d="M14.225,35.9H12.87a1.356,1.356,0,0,0-1.355,1.355v1.355a1.356,1.356,0,0,0,1.355,1.355h1.355a1.356,1.356,0,0,0,1.355-1.355V37.256A1.356,1.356,0,0,0,14.225,35.9Zm-1.355,2.71V37.256h1.355v1.355Z"/>
        <path id="Path_6" data-name="Path 6" d="M30.482,35.9H29.128a1.356,1.356,0,0,0-1.355,1.355v1.355a1.356,1.356,0,0,0,1.355,1.355h1.355a1.356,1.356,0,0,0,1.355-1.355V37.256A1.356,1.356,0,0,0,30.482,35.9Zm-1.355,2.71V37.256h1.355v1.355Z"/>
        <circle id="Ellipse_2" data-name="Ellipse 2" cx="0.677" cy="0.677" r="0.677" transform="translate(20.999 3.387)"/>
        <path id="Path_7" data-name="Path 7" d="M34.547,15.58H35.9v2.71H34.547Z"/>
        <path id="Path_8" data-name="Path 8" d="M40.643,12.87h-6.1V4.064A3.391,3.391,0,0,0,31.16.677H12.193A3.391,3.391,0,0,0,8.806,4.064V14.225H8.433a4.766,4.766,0,0,0-2.108.494l-3.1,1.538H.708L.675,28.45H3.161l1.445,1.084a4.767,4.767,0,0,0,2.845.948H8.806v8.806a3.391,3.391,0,0,0,3.387,3.387H31.16a3.391,3.391,0,0,0,3.387-3.387V27.773h6.1a2.035,2.035,0,0,0,2.032-2.032V14.9A2.035,2.035,0,0,0,40.643,12.87ZM33.192,4.064V6.1H24.368a3.352,3.352,0,0,0,.695-2.032V2.032h6.1A2.035,2.035,0,0,1,33.192,4.064Zm-13.548,0V2.032h4.064V4.064a2.032,2.032,0,0,1-4.064,0ZM12.193,2.032h6.1V4.064A3.352,3.352,0,0,0,18.984,6.1H10.161V4.064A2.035,2.035,0,0,1,12.193,2.032ZM5.419,28.45,3.613,27.1H2.034l.024-9.483H3.545l3.382-1.679a3.414,3.414,0,0,1,1.506-.353h2.783a4.967,4.967,0,0,0,2.208-.522L15,14.269a.434.434,0,0,1,.606.439,3.586,3.586,0,0,1-3.581,3.581H9.512v1.355H24.386a.677.677,0,0,1,0,1.355H13.548v1.355h2.71a.677.677,0,0,1,0,1.355h-2.71v1.355h2.71a.677.677,0,0,1,0,1.355h-2.71v1.355H14.9a.677.677,0,1,1,0,1.355H7.451A3.406,3.406,0,0,1,5.419,28.45ZM31.16,41.321H12.193a2.035,2.035,0,0,1-2.032-2.032V34.547H33.192v4.742A2.035,2.035,0,0,1,31.16,41.321Zm2.032-8.129H10.161v-2.71H14.9a2.026,2.026,0,0,0,1.883-2.788,2.014,2.014,0,0,0,.975-3.308,1.97,1.97,0,0,0,.4-2.032h6.221a2.032,2.032,0,0,0,0-4.064H15.405a5.008,5.008,0,0,0,1.558-3.646A1.774,1.774,0,0,0,14.4,13.057l-1.579.789a3.594,3.594,0,0,1-1.6.379H10.161V7.451H33.192V12.87H29.805A2.035,2.035,0,0,0,27.773,14.9V25.741a2.035,2.035,0,0,0,2.032,2.032h3.387Zm8.129-7.451a.678.678,0,0,1-.677.677H29.805a.678.678,0,0,1-.677-.677V14.9a.678.678,0,0,1,.677-.677H40.643a.678.678,0,0,1,.677.677Z"/>
        <path id="Path_9" data-name="Path 9" d="M35.9,23.709h1.355v1.355H35.9Z"/>
        <path id="Path_10" data-name="Path 10" d="M38.611,23.709h1.355v1.355H38.611Z"/>
        <path id="Path_11" data-name="Path 11" d="M21.676,13.267l-.876-.876-.958.958,1.834,1.834,5.9-5.9-.958-.958Z"/>
        <path id="Path_12" data-name="Path 12" d="M19.644,27.773h6.774v1.355H19.644Z"/>
        <path id="Path_13" data-name="Path 13" d="M19.644,30.482h6.774v1.355H19.644Z"/>
      </g>
    </g>
  </g>
</svg>
