<svg xmlns="http://www.w3.org/2000/svg" xmlns:xlink="http://www.w3.org/1999/xlink" width="42" height="42" viewBox="0 0 42 42">
  <defs>
    <clipPath id="clip-path">
      <rect id="Rectangle_6" data-name="Rectangle 6" width="42" height="42" transform="translate(90 734)" fill="#fff" stroke="#707070" stroke-width="1"/>
    </clipPath>
  </defs>
  <g id="img-4" transform="translate(-90 -734)" clip-path="url(#clip-path)">
    <g id="food-delivery" transform="translate(89.323 733.323)">
      <g id="Group_21" data-name="Group 21">
        <g id="Group_20" data-name="Group 20">
          <path id="Path_54" data-name="Path 54" d="M35.226,40.645a7.452,7.452,0,1,1,7.452-7.452A7.46,7.46,0,0,1,35.226,40.645Zm0-11.516a4.065,4.065,0,1,0,4.065,4.065A4.069,4.069,0,0,0,35.226,29.129Z" fill="#fe6b61"/>
        </g>
      </g>
      <g id="Group_23" data-name="Group 23">
        <g id="Group_22" data-name="Group 22">
          <path id="Path_55" data-name="Path 55" d="M10.839,40.645a7.452,7.452,0,1,1,7.452-7.452A7.46,7.46,0,0,1,10.839,40.645Zm0-11.516A4.065,4.065,0,1,0,14.9,33.194,4.069,4.069,0,0,0,10.839,29.129Z" fill="#fe6b61"/>
        </g>
      </g>
      <g id="Group_24" data-name="Group 24">
        <path id="Path_56" data-name="Path 56" d="M37.935,9.484H35.779a2.009,2.009,0,0,0,.125-.677,2.035,2.035,0,0,0-2.032-2.032H28.452a2.032,2.032,0,0,0,0,4.065h2.727a3.352,3.352,0,0,0-.7,2.032v6.573a12,12,0,0,1-9.552,11.717l-1.2-9.484H21a1.356,1.356,0,0,0,1.355-1.355V18.968A1.356,1.356,0,0,0,21,17.613V16.258a9.493,9.493,0,0,0-7.32-9.225,2.683,2.683,0,0,0,.545-1.614,2.71,2.71,0,1,0-5.419,0,2.683,2.683,0,0,0,.545,1.614,9.493,9.493,0,0,0-7.32,9.225v1.355A1.356,1.356,0,0,0,.677,18.968v1.355a1.356,1.356,0,0,0,1.355,1.355H4.817a4.724,4.724,0,0,0-1.43,3.387v3.387H2.71A2.035,2.035,0,0,0,.677,30.484v1.355A2.035,2.035,0,0,0,2.71,33.871h.712c-.02-.224-.035-.448-.035-.677a7.4,7.4,0,0,1,1.355-4.271V25.065a3.391,3.391,0,0,1,3.387-3.387H18.37l1.355,10.839h1.343l.066-.014A13.352,13.352,0,0,0,31.839,19.444V16.258h2.71v.358a5.546,5.546,0,0,0,2.71,4.785v4.63a7.386,7.386,0,0,1,1.355.534V20.582l-.375-.187A4.2,4.2,0,0,1,35.9,16.616v-.358h2.032a3.387,3.387,0,0,0,0-6.774ZM3.387,32.516H2.71a.678.678,0,0,1-.677-.677V30.484a.678.678,0,0,1,.677-.677h.677Zm6.774-27.1a1.355,1.355,0,1,1,1.355,1.355A1.356,1.356,0,0,1,10.161,5.419ZM3.387,16.258a8.129,8.129,0,1,1,16.258,0v1.355H3.387ZM2.032,20.323V18.968H21v1.355ZM27.774,8.806a.679.679,0,0,1,.677-.677h5.419a.677.677,0,1,1,0,1.355H28.452A.679.679,0,0,1,27.774,8.806Zm4.065,4.065a2.035,2.035,0,0,1,2.032-2.032H35.9V14.9H31.839Zm6.1,2.032h-.677V10.839h.677a2.032,2.032,0,0,1,0,4.065Z"/>
        <path id="Path_57" data-name="Path 57" d="M18,35.226a7.386,7.386,0,0,1-.534,1.355H28.6a7.386,7.386,0,0,1-.534-1.355Z"/>
        <path id="Path_58" data-name="Path 58" d="M35.226,28.452a4.742,4.742,0,1,0,4.742,4.742A4.748,4.748,0,0,0,35.226,28.452Zm3.319,4.065H35.9V29.875A3.4,3.4,0,0,1,38.544,32.516Zm-4-2.641v2.641H31.907A3.4,3.4,0,0,1,34.548,29.875Zm-2.641,4h2.641v2.641A3.4,3.4,0,0,1,31.907,33.871Zm4,2.641V33.871h2.641A3.4,3.4,0,0,1,35.9,36.512Z"/>
        <path id="Path_59" data-name="Path 59" d="M10.839,28.452a4.742,4.742,0,1,0,4.742,4.742A4.748,4.748,0,0,0,10.839,28.452Zm3.319,4.065H11.516V29.875A3.4,3.4,0,0,1,14.157,32.516Zm-4-2.641v2.641H7.52A3.4,3.4,0,0,1,10.161,29.875Zm-2.641,4h2.641v2.641A3.4,3.4,0,0,1,7.52,33.871Zm4,2.641V33.871h2.641A3.4,3.4,0,0,1,11.516,36.512Z"/>
        <path id="Path_60" data-name="Path 60" d="M11.516,9.484v1.355a5.426,5.426,0,0,1,5.419,5.419H18.29A6.782,6.782,0,0,0,11.516,9.484Z"/>
      </g>
    </g>
  </g>
</svg>
