<svg xmlns="http://www.w3.org/2000/svg" xmlns:xlink="http://www.w3.org/1999/xlink" width="26" height="26" viewBox="0 0 26 26">
  <defs>
    <clipPath id="clip-path">
      <rect id="Rectangle_6" data-name="Rectangle 6" width="26" height="26" transform="translate(93 741)" fill="#fff" stroke="#707070" stroke-width="1"/>
    </clipPath>
  </defs>
  <g id="img-1" transform="translate(-93 -741)" clip-path="url(#clip-path)">
    <g id="order" transform="translate(93 741)">
      <g id="Group_42" data-name="Group 42">
        <path id="Path_63" data-name="Path 63" d="M17.383,8.022v7.761a14.309,14.309,0,0,0,1.688,6.8h0v2.906H2.915V1.994H19.091V5.672h-.665a1.042,1.042,0,0,0-1.044,1.04v1.31Z" fill="#f9f5f3"/>
      </g>
      <g id="Group_43" data-name="Group 43">
        <circle id="Ellipse_5" data-name="Ellipse 5" cx="1.708" cy="1.708" r="1.708" transform="translate(6.063 6.593)" fill="#a0c8ff"/>
      </g>
      <g id="Group_44" data-name="Group 44">
        <circle id="Ellipse_6" data-name="Ellipse 6" cx="1.708" cy="1.708" r="1.708" transform="translate(6.063 12.783)" fill="#a0c8ff"/>
      </g>
      <g id="Group_45" data-name="Group 45">
        <circle id="Ellipse_7" data-name="Ellipse 7" cx="1.708" cy="1.708" r="1.708" transform="translate(6.063 18.959)" fill="#a0c8ff"/>
      </g>
      <g id="Group_46" data-name="Group 46">
        <path id="Path_64" data-name="Path 64" d="M19.1,8.022H17.383v7.761a14.306,14.306,0,0,0,1.688,6.8,14.323,14.323,0,0,0,1.73-6.8l.014-7.767H19.1Z" fill="#868eaf"/>
      </g>
      <g id="Group_47" data-name="Group 47">
        <path id="Path_65" data-name="Path 65" d="M19.777,5.674l-1.351,0a1.042,1.042,0,0,0-1.043,1.04v1.31h3.432l0-1.3a1.042,1.042,0,0,0-1.04-1.044Z" fill="#ced3dd"/>
      </g>
      <g id="Group_48" data-name="Group 48">
        <path id="Path_66" data-name="Path 66" d="M11.89,7.525h3.2a.508.508,0,0,0,0-1.016h-3.2a.508.508,0,0,0,0,1.016Z"/>
        <path id="Path_67" data-name="Path 67" d="M11.89,9.685h1.671a.508.508,0,1,0,0-1.016H11.89a.508.508,0,0,0,0,1.016Z"/>
        <path id="Path_68" data-name="Path 68" d="M11.89,13.919h3.2a.508.508,0,0,0,0-1.016h-3.2a.508.508,0,0,0,0,1.016Z"/>
        <path id="Path_69" data-name="Path 69" d="M11.89,16.079h1.671a.508.508,0,1,0,0-1.016H11.89a.508.508,0,1,0,0,1.016Z"/>
        <path id="Path_70" data-name="Path 70" d="M7.771,10.516A2.216,2.216,0,1,0,5.556,8.3,2.218,2.218,0,0,0,7.771,10.516Zm0-3.415a1.2,1.2,0,1,1-1.2,1.2A1.2,1.2,0,0,1,7.771,7.1Z"/>
        <path id="Path_71" data-name="Path 71" d="M7.771,16.707a2.216,2.216,0,1,0-2.216-2.216A2.218,2.218,0,0,0,7.771,16.707Zm0-3.415a1.2,1.2,0,1,1-1.2,1.2A1.2,1.2,0,0,1,7.771,13.291Z"/>
        <path id="Path_72" data-name="Path 72" d="M7.771,22.882a2.216,2.216,0,1,0-2.216-2.216A2.218,2.218,0,0,0,7.771,22.882Zm0-3.415a1.2,1.2,0,1,1-1.2,1.2A1.2,1.2,0,0,1,7.771,19.466Z"/>
        <path id="Path_73" data-name="Path 73" d="M11.89,20.094h3.2a.508.508,0,0,0,0-1.016h-3.2a.508.508,0,0,0,0,1.016Z"/>
        <path id="Path_74" data-name="Path 74" d="M11.89,22.254h1.671a.508.508,0,0,0,0-1.016H11.89a.508.508,0,0,0,0,1.016Z"/>
        <path id="Path_75" data-name="Path 75" d="M23.073,8.043a1.77,1.77,0,0,0-1.258-.524l-.491,0v-.8a1.551,1.551,0,0,0-1.547-1.552H19.6V1.994a.508.508,0,0,0-.508-.508h-3.5V.508a.508.508,0,0,0-1.016,0v.978H11.125V.508a.508.508,0,0,0-1.016,0v.978H6.655V.508a.508.508,0,0,0-1.016,0v.978H2.915a.508.508,0,0,0-.508.508v10.25a.508.508,0,0,0,.508.508h0a.507.507,0,0,0,.507-.508c0-.012,0-.024,0-.036V2.5H5.64v.961a.508.508,0,0,0,1.016,0V2.5h3.454v.961a.508.508,0,0,0,1.016,0V2.5h3.454v.961a.508.508,0,1,0,1.016,0V2.5h2.989V5.164h-.16a1.552,1.552,0,0,0-1.549,1.548v9.071a14.879,14.879,0,0,0,1.688,6.93v2.273H3.422v-8.22c0-.017,0-.034,0-.052a.508.508,0,0,0-.5-.508H2.915a.508.508,0,0,0-.508.508v8.78A.508.508,0,0,0,2.915,26H19.071a.508.508,0,0,0,.508-.508v-2.78a14.9,14.9,0,0,0,1.746-6.923V8.532l.487,0a.768.768,0,0,1,.766.769l-.006,3.512a.508.508,0,0,0,.507.509h0a.508.508,0,0,0,.508-.507L23.593,9.3a1.771,1.771,0,0,0-.52-1.262ZM17.89,6.712a.535.535,0,0,1,.534-.533h0l1.351,0a.535.535,0,0,1,.533.535v.8H17.89v-.8Zm2.4,9.076a13.864,13.864,0,0,1-1.219,5.649,13.921,13.921,0,0,1-1.183-5.654V8.529h2.415Z"/>
        <path id="Path_76" data-name="Path 76" d="M2.493,14.773a.508.508,0,1,0,.14-.7.512.512,0,0,0-.14.7Z"/>
      </g>
    </g>
  </g>
</svg>
