<svg xmlns="http://www.w3.org/2000/svg" xmlns:xlink="http://www.w3.org/1999/xlink" width="26" height="26" viewBox="0 0 26 26">
  <defs>
    <clipPath id="clip-path">
      <rect id="Rectangle_6" data-name="Rectangle 6" width="26" height="26" transform="translate(93 741)" fill="#fff" stroke="#707070" stroke-width="1"/>
    </clipPath>
  </defs>
  <g id="img-2" transform="translate(-93 -741)" clip-path="url(#clip-path)">
    <g id="chef_1_" data-name="chef (1)" transform="translate(93 741)">
      <rect id="Rectangle_7" data-name="Rectangle 7" width="4.332" height="3.898" transform="translate(10.833 13.87)" fill="#fec9a3"/>
      <path id="Path_77" data-name="Path 77" d="M10.834,13.872v1.083a3.934,3.934,0,0,0,4.332,0V13.872Z" fill="#f7bb8f"/>
      <path id="Path_78" data-name="Path 78" d="M18.588,16.557l-3.422-.52a4.108,4.108,0,0,1-4.332,0l-3.422.52A2.6,2.6,0,0,0,5.2,19.113V26H20.8V19.156A2.65,2.65,0,0,0,18.588,16.557Z" fill="#e5e5e5"/>
      <path id="Path_79" data-name="Path 79" d="M5.2,25.87V26H20.8V19.156a2.4,2.4,0,0,0-.3-1.213C16.725,23.791,8.408,25.437,5.2,25.87Z" fill="#dedede"/>
      <g id="Group_49" data-name="Group 49">
        <rect id="Rectangle_8" data-name="Rectangle 8" width="0.866" height="0.866" transform="translate(10.4 22.533)" fill="#bfbfbf"/>
        <rect id="Rectangle_9" data-name="Rectangle 9" width="0.866" height="0.866" transform="translate(10.4 19.934)" fill="#bfbfbf"/>
        <rect id="Rectangle_10" data-name="Rectangle 10" width="0.866" height="0.866" transform="translate(10.4 25.132)" fill="#bfbfbf"/>
        <rect id="Rectangle_11" data-name="Rectangle 11" width="0.866" height="0.866" transform="translate(14.732 22.533)" fill="#bfbfbf"/>
        <rect id="Rectangle_12" data-name="Rectangle 12" width="0.866" height="0.866" transform="translate(14.732 19.934)" fill="#bfbfbf"/>
        <rect id="Rectangle_13" data-name="Rectangle 13" width="0.866" height="0.866" transform="translate(14.732 25.132)" fill="#bfbfbf"/>
        <rect id="Rectangle_14" data-name="Rectangle 14" width="0.866" height="6.497" transform="translate(17.331 19.501)" fill="#bfbfbf"/>
        <path id="Path_80" data-name="Path 80" d="M14.386,16.037a.445.445,0,0,0-.52.3L13.52,17.77l-1,.173-.39-1.559a.442.442,0,0,0-.866.173V16.6l.39,1.516-3.465.52a.461.461,0,0,0-.39.433V26h.866V19.459l5.285-.823a.47.47,0,0,0,.347-.347l.433-1.733a.46.46,0,0,0-.347-.52Z" fill="#bfbfbf"/>
      </g>
      <path id="Path_81" data-name="Path 81" d="M18.2,2.176a1.733,1.733,0,1,0-3.465,0,1.733,1.733,0,1,0-3.465,0A1.733,1.733,0,1,0,9.1,3.866V8.24h7.8V3.866A1.755,1.755,0,0,0,18.2,2.176Z" fill="#e5e5e5"/>
      <path id="Path_82" data-name="Path 82" d="M9.1,8.24h7.8v2.6a3.882,3.882,0,0,1-3.9,3.9h0a3.882,3.882,0,0,1-3.9-3.9V8.24Z" fill="#fec9a3"/>
      <path id="Path_83" data-name="Path 83" d="M7.326,16.124A3.026,3.026,0,0,0,4.77,19.113V26h.866V19.156a2.112,2.112,0,0,1,1.819-2.122l3.292-.52c.173.087.39.173.563.26l.347,1.343-3.465.52a.461.461,0,0,0-.39.433V26h.866V19.459l5.285-.823a.47.47,0,0,0,.347-.347l.39-1.559a2.334,2.334,0,0,0,.563-.3l3.292.52a2.114,2.114,0,0,1,1.819,2.166V26h.866V19.156a2.993,2.993,0,0,0-2.556-2.989l-3.075-.52V14.3a4.391,4.391,0,0,0,1.733-3.465V4.169A2.18,2.18,0,0,0,18.458,1.31,2.144,2.144,0,0,0,15.6.184a1.936,1.936,0,0,0-.866.693A2.155,2.155,0,0,0,11.7.444a2.053,2.053,0,0,0-.433.433A2.166,2.166,0,1,0,7.8,3.476a1.936,1.936,0,0,0,.866.693v6.671A4.391,4.391,0,0,0,10.4,14.3v1.386Zm6.194,1.689-1,.173-.26-.953a3.963,3.963,0,0,0,1.429,0Zm1.213-2.036a3.765,3.765,0,0,1-3.465,0v-.953a4.379,4.379,0,0,0,3.465,0ZM9.188,3.432a1.337,1.337,0,0,1-.953-1.6,1.32,1.32,0,0,1,2.6.347.433.433,0,0,0,.866,0,1.3,1.3,0,0,1,2.6,0,.433.433,0,1,0,.866,0,1.3,1.3,0,0,1,2.6,0,1.263,1.263,0,0,1-.953,1.256.422.422,0,0,0-.347.433V6.075H14.733v-1.3h-.866v1.3H12.134v-1.3h-.866v1.3H10.4v.866h6.064v.866H9.535V3.866A.422.422,0,0,0,9.188,3.432Zm.347,7.407V8.674h6.931v2.166a3.465,3.465,0,0,1-6.931,0Z"/>
      <rect id="Rectangle_15" data-name="Rectangle 15" width="0.866" height="0.866" transform="translate(10.4 22.533)"/>
      <rect id="Rectangle_16" data-name="Rectangle 16" width="0.866" height="0.866" transform="translate(10.4 19.934)"/>
      <rect id="Rectangle_17" data-name="Rectangle 17" width="0.866" height="0.866" transform="translate(10.4 25.132)"/>
      <rect id="Rectangle_18" data-name="Rectangle 18" width="0.866" height="0.866" transform="translate(14.732 22.533)"/>
      <rect id="Rectangle_19" data-name="Rectangle 19" width="0.866" height="0.866" transform="translate(14.732 19.934)"/>
      <rect id="Rectangle_20" data-name="Rectangle 20" width="0.866" height="0.866" transform="translate(14.732 25.132)"/>
      <rect id="Rectangle_21" data-name="Rectangle 21" width="0.866" height="6.497" transform="translate(17.331 19.501)"/>
    </g>
  </g>
</svg>
