<svg xmlns="http://www.w3.org/2000/svg" xmlns:xlink="http://www.w3.org/1999/xlink" width="42" height="42" viewBox="0 0 42 42">
  <defs>
    <clipPath id="clip-path">
      <rect id="Rectangle_6" data-name="Rectangle 6" width="42" height="42" transform="translate(90 734)" fill="#fff" stroke="#707070" stroke-width="1"/>
    </clipPath>
  </defs>
  <g id="img-3" transform="translate(-90 -734)" clip-path="url(#clip-path)">
    <g id="delivery" transform="translate(89.323 733.323)">
      <g id="Group_17" data-name="Group 17">
        <path id="Path_40" data-name="Path 40" d="M30.484,33.871h9.484v6.1H30.484Z" fill="#fe6b61"/>
      </g>
      <g id="Group_18" data-name="Group 18">
        <path id="Path_41" data-name="Path 41" d="M28.452,21.677a8.757,8.757,0,0,1-4.742-1.393v6.135h9.484V20.284A8.757,8.757,0,0,1,28.452,21.677Z" fill="#fe6b61"/>
      </g>
      <g id="Group_19" data-name="Group 19">
        <path id="Path_42" data-name="Path 42" d="M40.645,19.645H35.076A9.444,9.444,0,0,0,36.207,7.429l2.009-2.009-2.99-2.99L33.063,4.592a9.37,9.37,0,0,0-1.9-.8V2.032h1.355V.677H24.387V2.032h1.355V3.787a9.447,9.447,0,0,0-1.9.8L21.677,2.429l-2.99,2.99L20.7,7.429a9.444,9.444,0,0,0,1.131,12.217H16.258a2.035,2.035,0,0,0-2.032,2.032V40.645a2.035,2.035,0,0,0,2.032,2.032H40.645a2.035,2.035,0,0,0,2.032-2.032V21.677A2.035,2.035,0,0,0,40.645,19.645Zm-5.419-15.3L36.3,5.419l-.957.957a9.427,9.427,0,0,0-1.129-1.02ZM27.1,2.032h2.71V3.5a8.522,8.522,0,0,0-2.71,0ZM20.6,5.419l1.074-1.074,1.011,1.011a9.652,9.652,0,0,0-1.129,1.02Zm-.28,7.452A8.129,8.129,0,1,1,28.452,21,8.138,8.138,0,0,1,20.323,12.871Zm21,27.774a.679.679,0,0,1-.677.677H16.258a.679.679,0,0,1-.677-.677V21.677A.679.679,0,0,1,16.258,21h7.334a9.393,9.393,0,0,0,9.72,0h7.334a.679.679,0,0,1,.677.677Z"/>
        <path id="Path_43" data-name="Path 43" d="M26.419,23.71h1.355v2.71H26.419Z"/>
        <path id="Path_44" data-name="Path 44" d="M29.129,23.71h1.355v2.71H29.129Z"/>
        <path id="Path_45" data-name="Path 45" d="M28.452,19.645a6.774,6.774,0,1,0-6.774-6.774A6.782,6.782,0,0,0,28.452,19.645Zm0-12.194a5.419,5.419,0,1,1-5.419,5.419A5.426,5.426,0,0,1,28.452,7.452Z"/>
        <path id="Path_46" data-name="Path 46" d="M38.613,38.613h1.355v1.355H38.613Z"/>
        <path id="Path_47" data-name="Path 47" d="M35.9,38.613h1.355v1.355H35.9Z"/>
        <path id="Path_48" data-name="Path 48" d="M30.484,38.613h1.355v1.355H30.484Z"/>
        <path id="Path_49" data-name="Path 49" d="M33.194,38.613h1.355v1.355H33.194Z"/>
        <path id="Path_50" data-name="Path 50" d="M30.484,35.9h9.484v1.355H30.484Z"/>
        <path id="Path_51" data-name="Path 51" d="M30.484,33.194h9.484v1.355H30.484Z"/>
        <path id="Path_52" data-name="Path 52" d="M31.161,12.194H29.129V8.806H27.774v4.742h3.387Z"/>
        <path id="Path_53" data-name="Path 53" d="M2.032,23.032a2.035,2.035,0,0,0,2.032,2.032H9.484a.677.677,0,0,1,0,1.355H5.419a2.032,2.032,0,1,0,0,4.065h5.419a.677.677,0,0,1,0,1.355H2.71a2.032,2.032,0,1,0,0,4.065H9.484a.677.677,0,0,1,0,1.355H5.419a2.032,2.032,0,0,0,0,4.065h7.452V39.968H5.419a.677.677,0,0,1,0-1.355H9.484a2.032,2.032,0,1,0,0-4.065H2.71a.677.677,0,0,1,0-1.355h8.129a2.032,2.032,0,0,0,0-4.065H5.419a.677.677,0,1,1,0-1.355H9.484a2.032,2.032,0,1,0,0-4.065H4.065a.677.677,0,0,1,0-1.355h8.806V21H4.065A2.035,2.035,0,0,0,2.032,23.032Z"/>
      </g>
    </g>
  </g>
</svg>
