<svg xmlns="http://www.w3.org/2000/svg" xmlns:xlink="http://www.w3.org/1999/xlink" width="243" height="243" viewBox="0 0 243 243"><defs><style>.a{fill:#fff;stroke:#707070;}.b{clip-path:url(#a);}.c{fill:#f5585c;}.d{fill:#f9d6bf;}.e{fill:#efc1a8;}.f{fill:#494970;}.g{fill:#3a3a60;}.h{fill:#e2e9f2;}.i{fill:#c7d6e5;}.j{fill:#5d5d84;}.k{fill:#fad964;}.l{fill:#fab941;}.m{fill:#bc4c2e;}.n{fill:#ab3829;}.o{fill:#e6ac6d;}.p{fill:#d13044;}.q{fill:#ce8a4d;}.r{fill:#afbc31;}.s{fill:#9fa519;}</style><clipPath id="a"><rect class="a" width="243" height="243"/></clipPath></defs><g class="b"><g transform="translate(2.595 0)"><path class="c" d="M237.81,121.191A118.905,118.905,0,1,1,118.9,2.285,118.905,118.905,0,0,1,237.81,121.191Zm0,0" transform="translate(0 2.905)"/><path class="d" d="M144.138,156.257a33.5,33.5,0,0,1-1.062-11.522l2.727-27.518a61.9,61.9,0,0,0-5.753-32.57c-12.835-26.111-9.891-28.006-10.289-53.918a9.585,9.585,0,0,0-19.17,0c0,105.378.2,97.645-.454,100.736v13.8a21.109,21.109,0,0,1-21.085,21.085H36.584a74.464,74.464,0,0,0,31.886,25.3c.078.033.158.065.237.1A31.389,31.389,0,0,1,87.326,215.2a118.461,118.461,0,0,0,64.766-29.724Zm0,0" transform="translate(46.499 26.875)"/><path class="d" d="M33.02,24.462l-2.92-2.7A11.155,11.155,0,0,0,14.937,38.122L33.02,54.878Zm0,0" transform="translate(14.461 23.892)"/><path class="e" d="M20.869,29.043a11.157,11.157,0,0,1-3.45-9.7,11.016,11.016,0,0,0-3.083,2.321,11.189,11.189,0,0,0,.6,15.764L33.02,54.184V40.3Zm0,0" transform="translate(14.461 24.586)"/><path class="f" d="M109.707,0H41.773A21.107,21.107,0,0,0,20.69,21.085V172.591a21.107,21.107,0,0,0,21.083,21.085h67.934a21.108,21.108,0,0,0,21.085-21.085V21.085A21.109,21.109,0,0,0,109.707,0Zm0,0" transform="translate(26.298 0)"/><path class="g" d="M46.556,172.591V21.085A21.107,21.107,0,0,1,67.639,0H41.773A21.107,21.107,0,0,0,20.69,21.085V172.591a21.107,21.107,0,0,0,21.083,21.085H67.639A21.107,21.107,0,0,1,46.556,172.591Zm0,0" transform="translate(26.298 0)"/><path class="h" d="M112.572,166.053a9.4,9.4,0,0,1-9.4,9.4H35.236a9.4,9.4,0,0,1-9.4-9.4V14.547a9.4,9.4,0,0,1,9.4-9.4h5.18a3.518,3.518,0,0,1,3.519,3.519v2.232a5.458,5.458,0,0,0,5.443,5.441h39.65a5.458,5.458,0,0,0,5.441-5.441V8.662a3.519,3.519,0,0,1,3.519-3.519h5.182a9.4,9.4,0,0,1,9.4,9.4Zm0,0" transform="translate(32.835 6.538)"/><path class="i" d="M40.02,166.053V14.547a20.955,20.955,0,0,1,2.023-9,3.5,3.5,0,0,0-1.624-.4H35.236a9.4,9.4,0,0,0-9.4,9.4V166.053a9.4,9.4,0,0,0,9.4,9.4h7a20.944,20.944,0,0,1-2.219-9.4Zm0,0" transform="translate(32.835 6.538)"/><path class="j" d="M58.618,10.455H46.97a3.4,3.4,0,1,1,0-6.81H58.618a3.4,3.4,0,1,1,0,6.81Zm0,0" transform="translate(55.371 4.633)"/><path class="j" d="M41.709,10.453a3.4,3.4,0,0,1-.664-6.741,3.276,3.276,0,0,1,1.329,0,3.4,3.4,0,0,1-.666,6.741Zm0,0" transform="translate(48.685 4.632)"/><path class="d" d="M46.7,64.877a9.773,9.773,0,0,1-13.812.525L16.517,50.233A9.774,9.774,0,0,1,29.8,35.893L46.176,51.064A9.775,9.775,0,0,1,46.7,64.877Zm0,0" transform="translate(17.013 42.311)"/><path class="e" d="M39.624,58.285,23.252,43.114a9.772,9.772,0,0,1-2.811-9.652,9.759,9.759,0,0,0-3.925,16.548L32.889,65.182a9.774,9.774,0,0,0,16.1-4.687,9.763,9.763,0,0,1-9.361-2.21Zm0,0" transform="translate(17.014 42.533)"/><path class="e" d="M131.8,78.136a78,78,0,0,1-86.31,34.96,74.206,74.206,0,0,0,11.669,6.114l.237.1A31.391,31.391,0,0,1,76.01,142.757a118.438,118.438,0,0,0,64.766-29.726l-7.952-29.213a33.5,33.5,0,0,1-1.029-5.682Zm0,0" transform="translate(57.813 99.314)"/><path class="d" d="M46.7,88.356a9.773,9.773,0,0,1-13.812.527L16.517,73.711A9.774,9.774,0,0,1,29.8,59.371L46.176,74.542A9.775,9.775,0,0,1,46.7,88.356Zm0,0" transform="translate(17.013 72.153)"/><path class="e" d="M39.624,81.764,23.252,66.593a9.772,9.772,0,0,1-2.811-9.652A9.759,9.759,0,0,0,16.517,73.49L32.889,88.661a9.774,9.774,0,0,0,16.1-4.687,9.763,9.763,0,0,1-9.361-2.21Zm0,0" transform="translate(17.014 72.375)"/><path class="d" d="M46.7,76.615a9.773,9.773,0,0,1-13.812.527L16.517,61.971A9.774,9.774,0,1,1,29.8,47.633L46.176,62.8A9.773,9.773,0,0,1,46.7,76.615Zm0,0" transform="translate(17.013 57.232)"/><path class="e" d="M39.624,70.026,23.252,54.855A9.775,9.775,0,0,1,20.442,45.2,9.76,9.76,0,0,0,16.517,61.75L32.889,76.921a9.774,9.774,0,0,0,16.1-4.687,9.757,9.757,0,0,1-9.361-2.208Zm0,0" transform="translate(17.014 57.453)"/><g transform="translate(87.877 161.978)"><path class="i" d="M42.254,78.438a3.557,3.557,0,1,1,3.56-3.554A3.565,3.565,0,0,1,42.254,78.438Zm0,0" transform="translate(-38.695 -71.322)"/><path class="i" d="M46.923,78.44a3.558,3.558,0,1,1,3.56-3.554A3.557,3.557,0,0,1,46.923,78.44Zm0,0" transform="translate(-32.761 -71.324)"/><path class="i" d="M51.59,78.44a3.558,3.558,0,1,1,3.56-3.554A3.562,3.562,0,0,1,51.59,78.44Zm0,0" transform="translate(-26.829 -71.324)"/></g><path class="k" d="M103.17,5.144h-5.18a3.519,3.519,0,0,0-3.519,3.519v2.232a5.461,5.461,0,0,1-5.443,5.443H49.378a5.459,5.459,0,0,1-5.441-5.443V8.663a3.519,3.519,0,0,0-3.519-3.519H35.236a9.4,9.4,0,0,0-9.4,9.4V30.632A76.86,76.86,0,0,1,80.493,36.3c10.6,5.226,21.472,8.354,32.081,8.771V14.547a9.4,9.4,0,0,0-9.4-9.4Zm0,0" transform="translate(32.835 6.538)"/><path class="l" d="M47.976,24.007q2.169.92,4.372,2c10.6,5.226,21.472,8.354,32.081,8.771V13.238c-10.608.415-21.482,3.545-32.081,8.769-1.468.725-2.926,1.387-4.372,2Zm0,0" transform="translate(60.979 16.826)"/><path class="l" d="M40.02,14.547a20.955,20.955,0,0,1,2.023-9,3.592,3.592,0,0,0-1.624-.4H35.236a9.4,9.4,0,0,0-9.4,9.4V30.632A77.377,77.377,0,0,1,40.02,28.22Zm0,0" transform="translate(32.835 6.538)"/><path class="m" d="M95.148,36.443H35.279a6.3,6.3,0,1,0,0,12.609H95.148a6.3,6.3,0,1,0,0-12.609Zm0,0" transform="translate(36.826 46.321)"/><path class="n" d="M50.118,42.748a6.3,6.3,0,0,1,6.305-6.305H35.279a6.3,6.3,0,1,0,0,12.609H56.423A6.3,6.3,0,0,1,50.118,42.748Zm0,0" transform="translate(36.826 46.321)"/><path class="o" d="M92.8,46.211H33.315a2.647,2.647,0,0,0-2.646,2.647v4.425A12.076,12.076,0,0,0,42.744,65.36H83.371A12.076,12.076,0,0,0,95.446,53.284V48.858A2.646,2.646,0,0,0,92.8,46.211Zm0,0" transform="translate(38.981 58.736)"/><path class="c" d="M93.049,51.569H33.068a2.4,2.4,0,0,1-2.4-2.4V44.394a2.4,2.4,0,0,1,2.4-2.4H93.049a2.4,2.4,0,0,1,2.4,2.4v4.778A2.4,2.4,0,0,1,93.049,51.569Zm0,0" transform="translate(38.982 53.377)"/><path class="p" d="M50.5,49.172V44.394A2.4,2.4,0,0,1,52.9,42H33.068a2.4,2.4,0,0,0-2.4,2.4v4.778a2.4,2.4,0,0,0,2.4,2.4H52.9A2.4,2.4,0,0,1,50.5,49.172Zm0,0" transform="translate(38.981 53.377)"/><path class="o" d="M30.669,41.561A16.839,16.839,0,0,1,47.509,24.722h31.1A16.838,16.838,0,0,1,95.446,41.561,2.307,2.307,0,0,1,93.14,43.87H32.975a2.307,2.307,0,0,1-2.306-2.308Zm0,0" transform="translate(38.981 31.423)"/><path class="q" d="M50.378,53.283V48.858a2.648,2.648,0,0,1,2.647-2.647H33.315a2.647,2.647,0,0,0-2.646,2.647v4.425A12.076,12.076,0,0,0,42.744,65.36H62.453A12.076,12.076,0,0,1,50.378,53.283Zm0,0" transform="translate(38.981 58.735)"/><path class="q" d="M50.378,41.561A16.84,16.84,0,0,1,67.22,24.722H47.509A16.839,16.839,0,0,0,30.669,41.561a2.307,2.307,0,0,0,2.306,2.308H52.687A2.307,2.307,0,0,1,50.378,41.561Zm0,0" transform="translate(38.981 31.423)"/><path class="r" d="M92,33.153H32.084a7.793,7.793,0,0,0,11.784,9.318,1.8,1.8,0,0,1,2.139,0,7.748,7.748,0,0,0,9.222,0,1.8,1.8,0,0,1,2.139,0,7.94,7.94,0,0,0,9.346,0,1.8,1.8,0,0,1,2.138,0,7.751,7.751,0,0,0,9.223,0,1.8,1.8,0,0,1,2.138,0,7.79,7.79,0,0,0,12.386-6.7,7.709,7.709,0,0,0-.6-2.618Zm0,0" transform="translate(39.999 42.139)"/><path class="s" d="M50.288,35.771a7.709,7.709,0,0,1,.6-2.618H32.084a7.793,7.793,0,0,0,11.784,9.318,1.8,1.8,0,0,1,2.139,0,7.744,7.744,0,0,0,8.337.56,7.669,7.669,0,0,1-4.056-7.26Zm0,0" transform="translate(39.999 42.139)"/><path class="k" d="M33.839,46.211,44.7,57.071a4.761,4.761,0,0,0,6.711,0l10.859-10.86Zm0,0" transform="translate(43.01 58.736)"/><path class="l" d="M47.5,58.419a12.018,12.018,0,0,1-1.146-5.135V48.858A2.648,2.648,0,0,1,49,46.211H33.839L44.7,57.071A4.717,4.717,0,0,0,47.5,58.419Zm0,0" transform="translate(43.01 58.736)"/><path class="r" d="M61.841,72.173H44.755a6.407,6.407,0,1,1,0-12.814H61.841a6.407,6.407,0,1,1,0,12.814Zm0,0" transform="translate(48.741 75.447)"/><path class="s" d="M53.3,65.766a6.406,6.406,0,0,1,6.407-6.407H44.755a6.407,6.407,0,1,0,0,12.814h14.95A6.406,6.406,0,0,1,53.3,65.766Zm0,0" transform="translate(48.741 75.447)"/></g></g></svg>