<svg id="icons" enable-background="new 0 0 64 64" height="512" viewBox="0 0 64 64" width="512" xmlns="http://www.w3.org/2000/svg"><path d="m48 39c0 1.65 1.34 3 3 3v1c0 1.09-.9 2-2 2h-1-23c-1.1 0-2-.91-2-2v-18-22c0-1.1.9-2 2-2h24c1.1 0 2 .9 2 2v14.87.13c-1.66 0-3 1.34-3 3 0 1.65 1.34 3 3 3-1.66 0-3 1.34-3 3 0 1.65 1.34 3 3 3-1.66 0-3 1.34-3 3 0 1.65 1.34 3 3 3-1.66 0-3 1.34-3 3z" fill="#5d9cec"/><path d="m44 31v-2c0-3.869-3.14-7-7-7 .83 0 1.5-.67 1.5-1.5s-.67-1.5-1.5-1.5-1.5.67-1.5 1.5.67 1.5 1.5 1.5c-3.86 0-7 3.131-7 7v2z" fill="#ccd1d9"/><g fill="#eac6bb"><path d="m51 24h1 .08c1.62.03 2.92 1.37 2.92 2.99 0 1.66-1.34 3-3 3h-1v.01c-1.66 0-3-1.35-3-3 0-1.66 1.34-3 3-3z"/><path d="m52 24h-1c-1.66 0-3-1.35-3-3 0-1.66 1.34-3 3-3h1c1.66 0 3 1.34 3 3 0 1.62-1.3 2.96-2.92 3-.03 0-.05 0-.08 0z"/><path d="m51 29.99h1c1.66 0 3 1.35 3 3 0 1.56-1.18 2.83-2.69 2.979v.05c-.1-.009-.21-.019-.31-.019h-1c-1.66 0-3-1.35-3-3 0-1.66 1.34-3 3-3z"/><path d="m51 42c-1.66 0-3-1.35-3-3 0-1.66 1.34-3 3-3h1c.1 0 .21.01.31.02 1.51.15 2.69 1.42 2.69 2.98 0 1.65-1.34 3-3 3z"/></g><path d="m44 28v2h-14v-2c0-3.87 3.14-7 7-7s7 3.13 7 7z" fill="#e6e9ed"/><path d="m37 42c1.1 0 2-.9 2-2 0-1.11-.9-2-2-2s-2 .89-2 2c0 1.1.9 2 2 2z"/><path d="m37 38c1.1 0 2 .89 2 2 0 1.1-.9 2-2 2s-2-.9-2-2c0-1.11.9-2 2-2z" fill="#4a89dc"/><path d="m48 45-12 13.3-19-6.61v-32.69c3.32 0 6 2.68 6 6v18c0 1.09.9 2 2 2z" fill="#eac6bb"/><path d="m15 51 2 .69 19 6.61 2 .7-2 4h-27z" fill="#656d78"/><path d="m16.029 57.999c-.553 0-1.005-.447-1.005-1s.442-1 .994-1h.011c.552 0 1 .447 1 1s-.448 1-1 1z" fill="#ffce54"/><path d="m34.03 6c-.553 0-1.005-.447-1.005-1s.442-1 .994-1h.011c.552 0 1 .447 1 1s-.448 1-1 1z" fill="#4a89dc"/><path d="m40 6h-3c-.553 0-1-.447-1-1s.447-1 1-1h3c.553 0 1 .447 1 1s-.447 1-1 1z" fill="#4a89dc"/><path d="m43.999 31.004h-13.998c-.553 0-1-.447-1-1s.447-1 1-1h13.998c.553 0 1 .447 1 1s-.447 1-1 1z" fill="#fff"/><path d="m32.001 19.004c-.553 0-1-.447-1-1v-5.004c0-.553.447-1 1-1s1 .447 1 1v5.004c0 .553-.447 1-1 1z" fill="#e6e9ed"/><path d="m42.001 19.004c-.553 0-1-.447-1-1v-5.004c0-.553.447-1 1-1s1 .447 1 1v5.004c0 .553-.447 1-1 1z" fill="#e6e9ed"/><path d="m37 16c-.553 0-1-.447-1-1v-2c0-.553.447-1 1-1s1 .447 1 1v2c0 .553-.447 1-1 1z" fill="#e6e9ed"/></svg>