<svg xmlns="http://www.w3.org/2000/svg" xmlns:xlink="http://www.w3.org/1999/xlink" width="243" height="243" viewBox="0 0 243 243"><defs><style>.a{fill:#fff;stroke:#707070;}.b{clip-path:url(#a);}.c{fill:#445ea0;}.d{fill:#2bb381;}.e{fill:#159e97;}.f{fill:#293d7c;}.g{fill:#ffaf10;}.h{fill:#60d882;}.i{fill:#37c47a;}.j{fill:#eaac68;}.k{fill:#db9652;}.l{fill:#ffc987;}.m{fill:#ffe2b8;}.n{fill:#ff9518;}.o{fill:#ef8318;}.p{fill:#ffd00d;}.q{fill:#bf7e52;}</style><clipPath id="a"><rect class="a" width="243" height="243"/></clipPath></defs><g class="b"><g transform="translate(5.221 0)"><path class="c" d="M232.559,120.877A116.28,116.28,0,1,1,116.28,4.6,116.28,116.28,0,0,1,232.559,120.877Zm0,0" transform="translate(0 5.843)"/><path class="d" d="M84.034,95.719h19.238V42.878h11.9c2.52,0,3.55-1.785,2.29-3.966L95.944,1.637c-1.259-2.182-3.32-2.182-4.581,0L69.842,38.91c-1.259,2.182-.228,3.967,2.291,3.967h11.9Zm0,0" transform="translate(88.088 0)"/><path class="e" d="M79.7,38.91,98.582,6.2,95.944,1.637c-1.259-2.182-3.32-2.182-4.581,0L69.842,38.91c-1.259,2.182-.228,3.967,2.291,3.967h9.856c-2.518,0-3.548-1.785-2.29-3.967Zm0,0" transform="translate(88.088 0)"/><path class="f" d="M23.806,99.059a116.327,116.327,0,0,0,124.43,0Zm0,0" transform="translate(30.258 125.906)"/><path class="g" d="M75.5,75.477a4.681,4.681,0,0,0-2.05.475H79.98a4.276,4.276,0,0,1,4.271,4.271V87.5a4.276,4.276,0,0,1-4.271,4.271v.949a4.277,4.277,0,0,1,4.271,4.272v7.277a4.276,4.276,0,0,1-4.271,4.271v.949a4.277,4.277,0,0,1,4.271,4.272v7.277a4.276,4.276,0,0,1-4.271,4.271v.949a4.277,4.277,0,0,1,4.271,4.272V137.8a4.276,4.276,0,0,1-4.271,4.271v.949a4.277,4.277,0,0,1,4.271,4.271v6.8H110.07a117.063,117.063,0,0,0,9.781-11.548,116.254,116.254,0,0,0,9.031-14.248,4.756,4.756,0,0,0-4.184-2.521,4.76,4.76,0,0,0,4.746-4.746v-7.277a4.76,4.76,0,0,0-4.746-4.746,4.76,4.76,0,0,0,4.746-4.746V96.99a4.76,4.76,0,0,0-4.746-4.746,4.76,4.76,0,0,0,4.746-4.746V80.223a4.76,4.76,0,0,0-4.746-4.746,4.76,4.76,0,0,0,4.746-4.746V63.454a4.76,4.76,0,0,0-4.746-4.746,4.76,4.76,0,0,0,4.746-4.746V46.685a4.76,4.76,0,0,0-4.746-4.746H75.5a4.76,4.76,0,0,0-4.746,4.746v7.277A4.76,4.76,0,0,0,75.5,58.708a4.76,4.76,0,0,0-4.746,4.746v7.277A4.76,4.76,0,0,0,75.5,75.477Zm0,0" transform="translate(89.927 53.305)"/><path class="h" d="M56.121,62.707h11.9v20a63.437,63.437,0,0,1,9.691,21.35h9.548V62.707h11.9c2.521,0,3.55-1.785,2.291-3.966L79.931,21.466c-1.261-2.182-3.322-2.182-4.581,0L53.829,58.741c-1.261,2.18-.23,3.966,2.291,3.966Zm0,0" transform="translate(67.734 25.203)"/><path class="i" d="M63.8,58.739,82.624,26.13,79.93,21.466c-1.259-2.182-3.32-2.182-4.581,0L53.828,58.739c-1.259,2.182-.228,3.967,2.291,3.967h9.967c-2.521,0-3.552-1.785-2.291-3.967Zm0,0" transform="translate(67.735 25.203)"/><path class="j" d="M61.344,21l-7.99-4.613a7.424,7.424,0,0,0-8.193.135,7.835,7.835,0,0,1,.089,3.832l-5.692,26.4H50.537L63.192,32.784A7.36,7.36,0,0,0,61.344,21Zm0,0" transform="translate(50.279 19.354)"/><path class="j" d="M48.76,46.756l-5.693-26.4a7.857,7.857,0,0,1,.089-3.832,7.427,7.427,0,0,0-8.193-.133L26.975,21a7.359,7.359,0,0,0-1.848,11.782L37.781,46.756Zm0,0" transform="translate(29.18 19.355)"/><path class="k" d="M47.235,43.882,29.944,24.792a7.518,7.518,0,0,1-1.863-7.3l-1.107.64a7.36,7.36,0,0,0-1.848,11.782L37.782,43.882Zm0,0" transform="translate(29.179 22.229)"/><path class="l" d="M37.4,49.024H50.262l5.671-26.3a7.359,7.359,0,0,0-7.492-9.279H39.217a7.358,7.358,0,0,0-7.492,9.279Zm0,0" transform="translate(40.058 17.088)"/><path class="j" d="M105.449,161.19v-6.8a4.277,4.277,0,0,1,4.271-4.271v-.949a4.276,4.276,0,0,1-4.271-4.271v-7.277a4.277,4.277,0,0,1,4.271-4.271V132.4a4.276,4.276,0,0,1-4.271-4.271V120.85a4.277,4.277,0,0,1,4.271-4.271v-.949a4.276,4.276,0,0,1-4.271-4.271v-7.277a4.277,4.277,0,0,1,4.271-4.271V98.86a4.276,4.276,0,0,1-4.271-4.271V87.314a4.276,4.276,0,0,1,4.271-4.271h25.24A64.069,64.069,0,0,0,89.39,36.36H56.412A63.948,63.948,0,0,0,9.062,98.033v46.9c-.143.076-.28.161-.419.243A116.683,116.683,0,0,0,21.575,161.19Zm0,0" transform="translate(10.986 46.214)"/><path class="k" d="M23.914,161.19V98.033A63.945,63.945,0,0,1,71.277,36.36H56.412A63.948,63.948,0,0,0,9.062,98.033v46.9c-.143.076-.28.161-.419.243A114.965,114.965,0,0,0,21.786,161.19Zm0,0" transform="translate(10.986 46.214)"/><path class="m" d="M49.384,72.364H41.579c-.172,0-4.244-.044-4.244-3.984,0-1.051,0-4.246,4.244-4.246H54.766a3.56,3.56,0,0,0,0-7.119H49.041V54.59a3.56,3.56,0,1,0-7.119,0v2.425h-.343c-6.8,0-11.363,4.566-11.363,11.365,0,7.212,5.855,11.1,11.363,11.1h7.805c1,0,4.246.287,4.246,3.984,0,3.522-1.7,4.246-4.246,4.246H35.793a3.56,3.56,0,0,0,0,7.119h6.129v2.944a3.56,3.56,0,0,0,7.119,0V94.832h.343c7.01,0,11.365-4.355,11.365-11.365,0-7.29-5.718-11.1-11.365-11.1Zm0,0" transform="translate(38.406 64.861)"/><path class="n" d="M85.679,53.962V46.685a4.76,4.76,0,0,1,4.746-4.746H75.5a4.76,4.76,0,0,0-4.746,4.746v7.277A4.76,4.76,0,0,0,75.5,58.708H90.425A4.76,4.76,0,0,1,85.679,53.962Zm0,0" transform="translate(89.927 53.305)"/><path class="n" d="M129.441,61.346a4.76,4.76,0,0,1-4.746,4.746H75.5a4.76,4.76,0,0,1-4.746-4.746V54.069A4.76,4.76,0,0,1,75.5,49.323h49.2a4.76,4.76,0,0,1,4.746,4.746Zm0,0" transform="translate(89.927 62.69)"/><path class="o" d="M85.679,61.346V54.069a4.76,4.76,0,0,1,4.746-4.746H75.5a4.76,4.76,0,0,0-4.746,4.746v7.277A4.76,4.76,0,0,0,75.5,66.092H90.425A4.76,4.76,0,0,1,85.679,61.346Zm0,0" transform="translate(89.927 62.69)"/><path class="n" d="M74.815,64.564a4.277,4.277,0,0,1,4.271,4.271v7.277a4.276,4.276,0,0,1-4.271,4.271v.475H119.53a4.76,4.76,0,0,0,4.746-4.746V68.836a4.76,4.76,0,0,0-4.746-4.746H74.815Zm0,0" transform="translate(95.092 81.459)"/><path class="n" d="M74.815,79.332A4.277,4.277,0,0,1,79.086,83.6V90.88a4.276,4.276,0,0,1-4.271,4.271v.475h39.869a116.267,116.267,0,0,0,9.032-14.248,4.757,4.757,0,0,0-4.186-2.521H74.815Zm0,0" transform="translate(95.092 100.23)"/><path class="p" d="M51.061,128.527v6.8h58.692v-6.8a4.76,4.76,0,0,0-4.746-4.746,4.76,4.76,0,0,0,4.746-4.746v-7.277a4.76,4.76,0,0,0-4.746-4.746,4.76,4.76,0,0,0,4.746-4.746V94.989a4.76,4.76,0,0,0-4.746-4.746,4.76,4.76,0,0,0,4.746-4.746V78.22a4.76,4.76,0,0,0-4.746-4.746,4.76,4.76,0,0,0,4.746-4.746V61.453a4.76,4.76,0,0,0-4.746-4.746h-49.2a4.76,4.76,0,0,0-4.746,4.746v7.275a4.76,4.76,0,0,0,4.746,4.746,4.76,4.76,0,0,0-4.746,4.746V85.5a4.76,4.76,0,0,0,4.746,4.746,4.76,4.76,0,0,0-4.746,4.746v7.277a4.76,4.76,0,0,0,4.746,4.746,4.76,4.76,0,0,0-4.746,4.746v7.277a4.76,4.76,0,0,0,4.746,4.746A4.76,4.76,0,0,0,51.061,128.527Zm0,0" transform="translate(64.9 72.075)"/><path class="g" d="M65.779,68.728V61.453a4.76,4.76,0,0,1,4.746-4.746H55.807a4.76,4.76,0,0,0-4.746,4.746v7.275a4.76,4.76,0,0,0,4.746,4.746H70.525A4.76,4.76,0,0,1,65.779,68.728Zm0,0" transform="translate(64.9 72.075)"/><path class="g" d="M109.753,76.113a4.76,4.76,0,0,1-4.746,4.746h-49.2a4.76,4.76,0,0,1-4.746-4.746V68.836a4.76,4.76,0,0,1,4.746-4.746h49.2a4.76,4.76,0,0,1,4.746,4.746Zm0,0" transform="translate(64.9 81.459)"/><path class="n" d="M65.779,76.113V68.836a4.76,4.76,0,0,1,4.746-4.746H55.807a4.76,4.76,0,0,0-4.746,4.746v7.277a4.76,4.76,0,0,0,4.746,4.746H70.525A4.76,4.76,0,0,1,65.779,76.113Zm0,0" transform="translate(64.9 81.459)"/><path class="g" d="M65.779,83.5V76.22a4.76,4.76,0,0,1,4.746-4.746H55.807a4.76,4.76,0,0,0-4.746,4.746V83.5a4.76,4.76,0,0,0,4.746,4.746H70.525A4.76,4.76,0,0,1,65.779,83.5Zm0,0" transform="translate(64.9 90.845)"/><path class="g" d="M109.753,90.88a4.76,4.76,0,0,1-4.746,4.746h-49.2a4.76,4.76,0,0,1-4.746-4.746V83.6a4.76,4.76,0,0,1,4.746-4.746h49.2a4.76,4.76,0,0,1,4.746,4.746Zm0,0" transform="translate(64.9 100.23)"/><path class="n" d="M65.779,90.88V83.6a4.76,4.76,0,0,1,4.746-4.746H55.807A4.76,4.76,0,0,0,51.061,83.6V90.88a4.76,4.76,0,0,0,4.746,4.746H70.525A4.76,4.76,0,0,1,65.779,90.88Zm0,0" transform="translate(64.9 100.23)"/><path class="g" d="M65.779,97.79v-6.8a4.76,4.76,0,0,1,4.746-4.746H55.807a4.76,4.76,0,0,0-4.746,4.746v6.8Zm0,0" transform="translate(64.9 109.615)"/><path class="m" d="M66.5,87.886H31.148a3.56,3.56,0,1,1,0-7.119H66.5a3.56,3.56,0,0,1,0,7.119Zm0,0" transform="translate(35.066 102.657)"/><path class="i" d="M73.145,41.566A4.76,4.76,0,0,1,68.4,46.312H31.463a4.76,4.76,0,0,1-4.746-4.746V33.648A4.76,4.76,0,0,1,31.463,28.9H68.4a4.76,4.76,0,0,1,4.746,4.746Zm0,0" transform="translate(33.958 36.735)"/><path class="d" d="M41.506,41.566V33.648A4.76,4.76,0,0,1,46.252,28.9H31.463a4.76,4.76,0,0,0-4.746,4.746v7.918a4.76,4.76,0,0,0,4.746,4.746H46.252A4.76,4.76,0,0,1,41.506,41.566Zm0,0" transform="translate(33.958 36.735)"/><path class="q" d="M14.132,91.117a116.789,116.789,0,0,0,22.728,18.51H159.776a116.854,116.854,0,0,0,22.729-18.51Zm0,0" transform="translate(17.962 115.812)"/></g></g></svg>