<svg id="Flat" height="512" viewBox="0 0 512 512" width="512" xmlns="http://www.w3.org/2000/svg"><g><g><path d="m56 144h400v288h-400z" fill="#b3e9ff"/><path d="m88 160h336v272h-336z" fill="#f2fbff"/><path d="m468 448h-424a20 20 0 0 1 -20-20v-20h152l16 8h128l16-8h152v20a20 20 0 0 1 -20 20z" fill="#4dccff"/><path d="m328 112h48a0 0 0 0 1 0 0v60a20 20 0 0 1 -20 20h-8a20 20 0 0 1 -20-20v-60a0 0 0 0 1 0 0z" fill="none"/><path d="m472 112v32h-432v-32l32-48h368z" fill="#d3463d"/><g><path d="m328 368h-144l-24-96h192z" fill="#fa5d3f"/><g fill="#d3463d"><path d="m248 312h16v32h-16z"/><path d="m208 312h16v32h-16z"/><path d="m288 312h16v32h-16z"/></g></g><path d="m232 112h48a0 0 0 0 1 0 0v60a20 20 0 0 1 -20 20h-8a20 20 0 0 1 -20-20v-60a0 0 0 0 1 0 0z" fill="#fa5d3f"/><path d="m184 112h48a0 0 0 0 1 0 0v60a20 20 0 0 1 -20 20h-8a20 20 0 0 1 -20-20v-60a0 0 0 0 1 0 0z" fill="#fee1dc"/><path d="m136 112h48a0 0 0 0 1 0 0v60a20 20 0 0 1 -20 20h-8a20 20 0 0 1 -20-20v-60a0 0 0 0 1 0 0z" fill="#fa5d3f"/><path d="m88 112h48a0 0 0 0 1 0 0v60a20 20 0 0 1 -20 20h-8a20 20 0 0 1 -20-20v-60a0 0 0 0 1 0 0z" fill="#fee1dc"/><path d="m40 112h48a0 0 0 0 1 0 0v60a20 20 0 0 1 -20 20h-8a20 20 0 0 1 -20-20v-60a0 0 0 0 1 0 0z" fill="#fa5d3f"/><path d="m424 112h48a0 0 0 0 1 0 0v60a20 20 0 0 1 -20 20h-8a20 20 0 0 1 -20-20v-60a0 0 0 0 1 0 0z" fill="#fa5d3f"/><path d="m376 112h48a0 0 0 0 1 0 0v60a20 20 0 0 1 -20 20h-8a20 20 0 0 1 -20-20v-60a0 0 0 0 1 0 0z" fill="#fee1dc"/><path d="m328 112h48a0 0 0 0 1 0 0v60a20 20 0 0 1 -20 20h-8a20 20 0 0 1 -20-20v-60a0 0 0 0 1 0 0z" fill="#fa5d3f"/><path d="m280 112h48a0 0 0 0 1 0 0v60a20 20 0 0 1 -20 20h-8a20 20 0 0 1 -20-20v-60a0 0 0 0 1 0 0z" fill="#fee1dc"/></g><path d="m368 264h-41.023l16.334-36.751-14.622-6.498-19.221 43.249h-106.936l-19.221-43.249-14.622 6.498 16.334 36.751h-41.023v16h48.134l8.555 19.249 14.622-6.498-5.668-12.751h92.714l-5.668 12.751 14.622 6.498 8.555-19.249h48.134z" fill="#d3463d"/></g></svg>