<svg xmlns="http://www.w3.org/2000/svg" width="104" height="90" viewBox="0 0 104 90">
  <g id="img-15" transform="translate(12568 2941)">
    <g id="Group_31" data-name="Group 31" transform="translate(-13271.563 -3054.051)">
      <path id="Path_39" data-name="Path 39" d="M788.941,156a3.073,3.073,0,0,0,.154,2.924s1.7,2.36,6.222.029,3.356-5.534,2.494-5.756l-4.956-1.277a2.257,2.257,0,0,0-2.387,1.165Z" transform="translate(-16.896 -9.91)" fill="#f9a175"/>
      <path id="Path_40" data-name="Path 40" d="M792.958,167.8a2.875,2.875,0,0,0,.144,2.749s1.331,1.852,5.138-.109,2.756-4.674,1.944-4.883l-3.859-.994c-.81-.209-1.823-1.668-2.247-.857Z" transform="translate(-18.032 -13.179)" fill="#f9a175"/>
      <path id="Path_41" data-name="Path 41" d="M790.769,179.1a2.625,2.625,0,0,0,.132,2.508s.963,1.338,4.009-.23,2.129-3.76,1.389-3.951l-2.757-.709a1.93,1.93,0,0,0-2.048,1Z" transform="translate(-17.422 -16.902)" fill="#f9a175"/>
      <path id="Path_42" data-name="Path 42" d="M768.521,171.919S766.5,199.463,755.548,206.3c-7.177,4.485-4.045-6.293-4.045-6.293l-1.239-26.74Z" transform="translate(-6.073 -15.563)" fill="#f9a175"/>
      <path id="Path_43" data-name="Path 43" d="M734.037,190.66l1.651-31.5a15.52,15.52,0,0,1,2.53-6.966l5.983-12.879c1.258-1.712,4.862-2.91,6.772-3.839l3.621.975c1.911-.929,3.363.045,3.228,2.165l-.784,12.29a25.235,25.235,0,0,1-1.845,7.369l-4.22,9.274a27.673,27.673,0,0,0-1.965,7.361l-.7,7.391a5.635,5.635,0,0,1-4.141,4.659Z" transform="translate(-1.498 -5.287)" fill="#f79f7c"/>
      <g id="Group_23" data-name="Group 23" transform="translate(745.313 116.728)">
        <path id="Path_44" data-name="Path 44" d="M782.862,170.074a3.953,3.953,0,0,1-3.622,4.2H757.688a3.954,3.954,0,0,1-3.622-4.2l-2.239-49.149a3.954,3.954,0,0,1,3.622-4.2h25.826a3.952,3.952,0,0,1,3.622,4.2Z" transform="translate(-751.827 -116.728)" fill="#fff"/>
      </g>
      <g id="Group_26" data-name="Group 26" transform="translate(745.313 116.728)">
        <path id="Path_45" data-name="Path 45" d="M752.273,145.723l-.446-24.8a3.954,3.954,0,0,1,3.622-4.2h25.826a3.952,3.952,0,0,1,3.622,4.2l-2.035,49.149a3.953,3.953,0,0,1-3.622,4.2H757.688a3.954,3.954,0,0,1-3.622-4.2" transform="translate(-751.827 -116.728)" fill="#fff"/>
        <g id="Group_24" data-name="Group 24" transform="translate(0.446 28.995)">
          <path id="Path_46" data-name="Path 46" d="M783.742,191.023a3.953,3.953,0,0,1-3.622,4.2H758.568a3.954,3.954,0,0,1-3.622-4.2Z" transform="translate(-753.152 -166.672)" fill="#ddf4fc"/>
          <path id="Path_47" data-name="Path 47" d="M752.448,157.109" transform="translate(-752.448 -157.109)" fill="#fff" stroke="#f03f37" stroke-linecap="round" stroke-linejoin="round" stroke-width="1.923"/>
        </g>
        <g id="Group_25" data-name="Group 25" transform="translate(6.165 16.5)">
          <rect id="Rectangle_14" data-name="Rectangle 14" width="18" height="18" rx="3" transform="translate(1.085 2.823)" fill="#fddedd"/>
          <path id="Path_48" data-name="Path 48" d="M524.1,349.921a.67.67,0,0,0,.9,0l2.91-2.619a.671.671,0,1,0-.9-.995l-1.773,1.6v-3.619a.669.669,0,1,0-1.338,0v3.648l-1.787-1.623a.669.669,0,0,0-.9.991Z" transform="translate(-505.578 -343.617)" fill="#f03f37"/>
          <path id="Path_50" data-name="Path 50" d="M464.108,373.169h9.909a4.856,4.856,0,0,0,4.856-4.846v-7.857a.669.669,0,1,0-1.338,0v7.857a3.517,3.517,0,0,1-3.519,3.508h-9.909a3.517,3.517,0,0,1-3.518-3.508v-9.885a3.517,3.517,0,0,1,3.518-3.508h7.111a.669.669,0,1,0,0-1.338h-7.111a4.856,4.856,0,0,0-4.856,4.846v9.885a4.856,4.856,0,0,0,4.857,4.846Z" transform="translate(-459.252 -351.101)" fill="#f03f37"/>
          <text id="_" data-name="$" transform="translate(6.086 16.823)" fill="#f03f37" font-size="14" font-family="SegoeUI-Semibold, Segoe UI" font-weight="600"><tspan x="0" y="0">$</tspan></text>
        </g>
      </g>
      <g id="Group_27" data-name="Group 27" transform="translate(745.759 145.723)">
        <path id="Path_51" data-name="Path 51" d="M782.971,186.57c0,2.307-1.135,7.394-3.128,7.394H758.292c-1.991,0-4.325-4.909-4.325-7.217Z" transform="translate(-752.876 -165.416)" fill="#fddedd"/>
        <path id="Path_52" data-name="Path 52" d="M752.448,157.109" transform="translate(-752.448 -157.109)" fill="#fff" stroke="#f03f37" stroke-linecap="round" stroke-linejoin="round" stroke-width="1.923"/>
        <ellipse id="Ellipse_1" data-name="Ellipse 1" cx="2.281" cy="2.069" rx="2.281" ry="2.069" transform="translate(11.702 22.117)" fill="#f03f37"/>
      </g>
      <path id="Path_53" data-name="Path 53" d="M751.827,130.187v-9.262a3.954,3.954,0,0,1,3.622-4.2h25.826a3.952,3.952,0,0,1,3.622,4.2l-2.035,49.149a3.953,3.953,0,0,1-3.622,4.2H757.688a3.954,3.954,0,0,1-3.622-4.2" transform="translate(-6.514)" fill="none" stroke="#f03f37" stroke-linecap="round" stroke-linejoin="round" stroke-width="2"/>
      <g id="Group_28" data-name="Group 28" transform="translate(728.726 144.905)">
        <path id="Path_54" data-name="Path 54" d="M760.359,159.51c0-.007-.006-.013-.007-.019a1.464,1.464,0,0,0-.119-.289.69.69,0,0,0-.043-.064,1.622,1.622,0,0,0-.146-.21,1.053,1.053,0,0,0-.113-.1,1.779,1.779,0,0,0-.139-.127,1.683,1.683,0,0,0-.212-.124c-.034-.017-.063-.04-.1-.056a1.838,1.838,0,0,0-.361-.118l-2.133-.463c-.181-.039-.384-.089-.6-.144l-.093-.024q-.327-.084-.675-.183h0c-.826-.234-1.707-.517-2.325-.756,0,0-3.336-1.287-4.441-.714-3.944,2.049-10.989,9.556-10.989,9.556A9.68,9.68,0,0,0,736,168.931l-3.579,19.058-2.653,3.863a5.9,5.9,0,0,0,.063,6.773l13.907,12.858c.937-1.5-.022,2.108.577,1.237,1.665-2.417,2.84-9.153,4.684-10.553a2.024,2.024,0,0,0,.481-.364s.937-.984,1.876-7.6c2.254-15.859-4.376-22.014-4.376-22.014a2.577,2.577,0,0,1-.469-3L750.6,165.2c.52-.926,2.3-.346,3.355-.218a8.641,8.641,0,0,0,4.57-1.076,3.809,3.809,0,0,0,1.769-3.3c.006-.014.007-.028.012-.042h0a.127.127,0,0,1,.01-.037,2.019,2.019,0,0,0,.086-.325V160.2a1.613,1.613,0,0,0-.043-.686Z" transform="translate(-728.726 -155.97)" fill="#f79f7c"/>
      </g>
      <path id="Path_55" data-name="Path 55" d="M765.189,197.654s-3.713,13.673-10.452,16.1l-3.947,9.329" transform="translate(-6.222 -22.819)" fill="none" stroke="#f03f37" stroke-linecap="round" stroke-linejoin="round" stroke-width="2"/>
      <path id="Path_56" data-name="Path 56" d="M767.27,162.123a1.959,1.959,0,0,1-.085.32.138.138,0,0,1-.01.037h0a.417.417,0,0,1-.012.041,3.726,3.726,0,0,1-1.769,3.253,8.756,8.756,0,0,1-4.57,1.058c-1.053-.126-2.835-.7-3.355.215l-4.091,3.925a2.508,2.508,0,0,0,.469,2.95" transform="translate(-6.87 -12.8)" fill="none" stroke="#f03f37" stroke-linecap="round" stroke-linejoin="round" stroke-width="2"/>
      <path id="Path_57" data-name="Path 57" d="M799.462,154.872" transform="translate(-19.946 -10.756)" fill="#ef8a4d"/>
      <path id="Path_58" data-name="Path 58" d="M794.954,163.2" transform="translate(-18.675 -13.104)" fill="none" stroke="#f03f37" stroke-linecap="round" stroke-linejoin="round" stroke-width="1.923"/>
      <path id="Path_59" data-name="Path 59" d="M796.374,172.215l2.908-.949s3.447-1.081,1.944-4.883" transform="translate(-19.075 -14.002)" fill="none" stroke="#f03f37" stroke-linecap="round" stroke-linejoin="round" stroke-width="2"/>
      <path id="Path_60" data-name="Path 60" d="M795.506,182.219c3.047-1.569,2.975-.414,3.9-3.767" transform="translate(-18.961 -17.007)" fill="none" stroke="#f03f37" stroke-linecap="round" stroke-linejoin="round" stroke-width="2"/>
    </g>
    <path id="Path_66" data-name="Path 66" d="M0,1H104V91H0Z" transform="translate(-12568 -2942)" fill="none"/>
  </g>
</svg>
