<svg xmlns="http://www.w3.org/2000/svg" width="104" height="92" viewBox="0 0 104 92"><defs><style>.a{fill:#e6ffff;}.b{fill:#f58558;}.c{fill:#fff09f;}.d{fill:#ef8c3d;}.e{fill:#fca1a8;}.f{fill:#79e8a7;}.g,.h,.k,.l,.m{fill:none;}.g,.h{stroke:#fff;stroke-width:2.97px;}.g{stroke-miterlimit:10;}.i{fill:#965028;}.j{fill:#f9e109;}.k,.l{stroke:#002970;stroke-linecap:round;stroke-linejoin:round;}.k{stroke-width:2px;}.l{stroke-width:1.707px;}</style></defs><g transform="translate(14366 4018)"><g transform="translate(-14359.711 -4012)"><g transform="translate(2.084)"><path class="a" d="M383.632,457.663a38.692,38.692,0,1,0,21.116,50.479,38.692,38.692,0,0,0-21.116-50.479Z" transform="translate(-325.024 -454.759)"/><g transform="translate(2.354 7.306)"><path class="b" d="M410.87,498.752,389.836,520.4h0a31.367,31.367,0,0,1-9.522-21.209Z" transform="translate(-380.314 -462.386)"/><path class="b" d="M389.882,468.9a31.479,31.479,0,1,1-43.871,45.154l-.022-.119.012.012L367.033,492.3l-30.541.439A31.475,31.475,0,0,1,389.882,468.9Z" transform="translate(-327.723 -459.998)"/><path class="c" d="M367.467,492.736l-23.927.344,0-.056a24.861,24.861,0,1,1,7.512,16.722l-.053-.054Z" transform="translate(-328.157 -460.433)"/><path class="d" d="M406.127,498.752,388.4,517l-.012-.012a26.636,26.636,0,0,1-8.071-17.864Z" transform="translate(-375.571 -462.386)"/><path class="c" d="M404.347,498.752l-16.507,16.989-.012-.01a24.811,24.811,0,0,1-7.514-16.634Z" transform="translate(-373.791 -462.386)"/><g transform="translate(23.46 17.47)"><ellipse class="e" cx="4.059" cy="4.059" rx="4.059" ry="4.059" transform="translate(0 0)"/></g><g transform="translate(47.846 34.555)"><ellipse class="e" cx="5.546" cy="5.546" rx="5.546" ry="5.546" transform="translate(0)"/><ellipse class="e" cx="4.059" cy="4.059" rx="4.059" ry="4.059" transform="translate(1.487 1.487)"/></g><g transform="translate(25.305 38.774)"><path class="e" d="M383.516,501.318l.057.053a5.546,5.546,0,0,1-7.667,8.017l-.064-.062-.053-.054Z" transform="translate(-375.789 -501.318)"/><path class="e" d="M383.064,502.455c.019.017.038.033.055.052a4.059,4.059,0,1,1-5.656,5.822h0l-.053-.054Z" transform="translate(-376.374 -501.388)"/></g><g transform="translate(13.513 42.653)"><path class="e" d="M390.016,507.134a5.547,5.547,0,0,1,7.843-.114l-7.73,7.955a5.545,5.545,0,0,1-.113-7.842Z" transform="translate(-388.447 -505.452)"/></g><g transform="translate(45.456 13.827)"><ellipse class="e" cx="5.546" cy="5.546" rx="5.546" ry="5.546" transform="translate(0)"/><ellipse class="e" cx="4.059" cy="4.059" rx="4.059" ry="4.059" transform="translate(1.487 1.487)"/></g><g transform="translate(54.704 25.886)"><path class="f" d="M347.523,487.585c-3.42.049-6.139,3.753-6.139,3.753s2.824,3.623,6.244,3.574,6.139-3.753,6.139-3.753-2.824-3.623-6.244-3.574Z" transform="translate(-341.384 -487.583)"/><path class="f" d="M347.625,495.147c-3.419.049-6.243-3.575-6.243-3.575l12.384-.177S351.044,495.1,347.625,495.147Z" transform="translate(-341.381 -487.818)"/></g><g transform="translate(37.677 44.225)"><path class="f" d="M370.19,508.908c-2.453-2.383-6.995-1.686-6.995-1.686s-.565,4.559,1.888,6.942,6.995,1.687,6.995,1.687S372.642,511.291,370.19,508.908Z" transform="translate(-363.139 -507.127)"/></g><g transform="translate(36.058 16.76)"><path class="f" d="M366.642,484.1c.049,3.419,3.753,6.138,3.753,6.138s3.623-2.824,3.574-6.243-3.753-6.14-3.753-6.14S366.592,480.684,366.642,484.1Z" transform="translate(-366.641 -477.859)"/></g><g transform="translate(18.906 11.166)"><path class="g" d="M358.186,503.635a4.257,4.257,0,0,0,3.23-7.877" transform="translate(-331.644 -473.367)"/><path class="h" d="M0,4.536a4.257,4.257,0,1,0,8.514,0" transform="translate(14.425 -4.536)"/><path class="h" d="M0,0A4.257,4.257,0,0,0,4.257,4.257,4.257,4.257,0,0,0,8.514,0" transform="matrix(-0.978, -0.208, 0.208, -0.978, 8.328, 17.294)"/></g><path class="i" d="M370.344,494.081l-2.31-2.246-2.246,2.31,2.31,2.246Z" transform="translate(-326.156 -461.96)"/><path class="c" d="M357.479,479.105a.595.595,0,1,0,1.1.451" transform="translate(-306.554 -461.175)"/><path class="j" d="M356.421,504.847a.595.595,0,1,0,.451-1.1" transform="translate(-304.265 -462.694)"/><path class="j" d="M356.421,504.847a.595.595,0,1,0,.451-1.1" transform="translate(-302.265 -464.694)"/><path class="j" d="M378.21,507.045a.6.6,0,0,0,.451-1.1" transform="translate(-346.501 -462.829)"/></g><path class="k" d="M411.635,514.881l-5.268,5.97h0a31.366,31.366,0,0,1-9.521-21.209" transform="translate(-394.237 -455.135)"/></g><path class="k" d="M330.259,529.112a38.7,38.7,0,1,0,15.06-74.342h0" transform="translate(-299.309 -454.759)"/><path class="l" d="M414.961,502.527" transform="translate(-414.961 -454.759)"/></g><path class="m" d="M104,1H0V93H104Z" transform="translate(-14366 -4019)"/></g></svg>