<svg xmlns="http://www.w3.org/2000/svg" width="100" height="100" viewBox="0 0 100 100">
  <g id="img-4" transform="translate(-842 -3777)">
    <path id="Path_66" data-name="Path 66" d="M0,1H100V101H0Z" transform="translate(842 3776)" fill="none"/>
    <g id="Group_67" data-name="Group 67" transform="translate(856.616 3792.244)">
      <g id="Group_66" data-name="Group 66">
        <circle id="Ellipse_3" data-name="Ellipse 3" cx="35.192" cy="35.192" r="35.192" transform="translate(0 0)" fill="rgba(254,107,97,0.2)"/>
        <g id="Group_65" data-name="Group 65" transform="translate(19.086 20.842)">
          <ellipse id="Ellipse_4" data-name="Ellipse 4" cx="2.954" cy="4.028" rx="2.954" ry="4.028" transform="translate(0 0)" fill="#fe6b61"/>
          <ellipse id="Ellipse_5" data-name="Ellipse 5" cx="2.954" cy="4.028" rx="2.954" ry="4.028" transform="translate(26.303 0)" fill="#fe6b61"/>
        </g>
        <path id="Path_67" data-name="Path 67" d="M689.066,615.237c-2.756,8.025-9.825,13.735-18.111,13.735-8.35,0-15.464-5.8-18.173-13.918" transform="translate(-635.732 -573.406)" fill="none" stroke="#191a1b" stroke-linecap="round" stroke-linejoin="round" stroke-width="2.5"/>
      </g>
      <path id="Path_68" data-name="Path 68" d="M35.192,0A35.3,35.3,0,1,1,12,8.747a35.835,35.835,0,0,1,9.716-6.076A34.787,34.787,0,0,1,35.192,0Z" fill="none" stroke="#191a1b" stroke-linecap="round" stroke-width="2.5"/>
    </g>
  </g>
</svg>
