<svg xmlns="http://www.w3.org/2000/svg" width="104" height="92.003" viewBox="0 0 104 92.003">
  <g id="img-10" transform="translate(-1044 -4716)">
    <g id="Group_79" data-name="Group 79" transform="translate(340.273 4606.766)">
      <path id="Path_74" data-name="Path 74" d="M788.939,155.976a3.053,3.053,0,0,0,.153,2.905s1.688,2.345,6.181.029,3.334-5.5,2.478-5.719l-4.923-1.268a2.242,2.242,0,0,0-2.372,1.158Z" transform="translate(-17.178 -10.076)" fill="#f9a175"/>
      <path id="Path_75" data-name="Path 75" d="M792.956,167.774a2.856,2.856,0,0,0,.143,2.731s1.322,1.84,5.1-.108,2.738-4.643,1.932-4.851l-3.834-.988c-.8-.208-1.811-1.657-2.233-.851Z" transform="translate(-18.334 -13.399)" fill="#f9a175"/>
      <path id="Path_76" data-name="Path 76" d="M790.767,179.08a2.608,2.608,0,0,0,.131,2.492s.957,1.33,3.982-.229,2.115-3.735,1.38-3.925l-2.739-.7a1.917,1.917,0,0,0-2.034.994Z" transform="translate(-17.713 -17.185)" fill="#f9a175"/>
      <path id="Path_77" data-name="Path 77" d="M768.4,171.919s-2.013,27.363-12.888,34.156c-7.13,4.455-4.018-6.251-4.018-6.251l-1.231-26.564Z" transform="translate(-6.175 -15.823)" fill="#f9a175"/>
      <path id="Path_78" data-name="Path 78" d="M734.037,190.3l1.64-31.292a15.416,15.416,0,0,1,2.513-6.921l5.943-12.795c1.25-1.7,4.831-2.891,6.728-3.814l3.6.969c1.9-.923,3.341.045,3.207,2.151l-.779,12.209a25.066,25.066,0,0,1-1.833,7.321l-4.192,9.213a27.483,27.483,0,0,0-1.952,7.313l-.7,7.343a5.6,5.6,0,0,1-4.114,4.629Z" transform="translate(-1.523 -5.375)" fill="#f79f7c"/>
      <g id="Group_72" data-name="Group 72" transform="translate(745.204 116.728)">
        <path id="Path_79" data-name="Path 79" d="M782.659,169.723a3.927,3.927,0,0,1-3.6,4.169H757.65a3.928,3.928,0,0,1-3.6-4.169L751.827,120.9a3.928,3.928,0,0,1,3.6-4.169h25.656a3.926,3.926,0,0,1,3.6,4.169Z" transform="translate(-751.827 -116.728)" fill="#fff"/>
      </g>
      <g id="Group_76" data-name="Group 76" transform="translate(745.204 116.728)">
        <path id="Path_80" data-name="Path 80" d="M752.27,145.532l-.443-24.635a3.928,3.928,0,0,1,3.6-4.169h25.656a3.926,3.926,0,0,1,3.6,4.169l-2.021,48.826a3.927,3.927,0,0,1-3.6,4.169H757.65a3.928,3.928,0,0,1-3.6-4.169" transform="translate(-751.827 -116.728)" fill="#fff"/>
        <g id="Group_73" data-name="Group 73" transform="translate(0.443 28.804)">
          <path id="Path_81" data-name="Path 81" d="M783.552,191.023a3.927,3.927,0,0,1-3.6,4.169H758.544a3.928,3.928,0,0,1-3.6-4.169Z" transform="translate(-753.164 -166.832)" fill="#ddf4fc"/>
          <path id="Path_82" data-name="Path 82" d="M752.448,157.109" transform="translate(-752.448 -157.109)" fill="#fff" stroke="#223468" stroke-linecap="round" stroke-linejoin="round" stroke-width="1.923"/>
        </g>
        <g id="Group_74" data-name="Group 74" transform="translate(8.298 34.89)">
          <path id="Path_83" data-name="Path 83" d="M766.433,167c-.454.409-.795.739-1.159,1.042-.6.5-.818.5-1.482.1-.169-.1-.343-.2-.637-.366-.126.757-.238,1.421-.344,2.086a1.821,1.821,0,0,1-.042.43c-.054.123-.189.287-.293.29a.491.491,0,0,1-.349-.245.915.915,0,0,1-.067-.468c.063-1.131.125-2.264.212-3.394a.5.5,0,0,1,.871-.391,5.917,5.917,0,0,1,.8.852c.347.4.489.432.91.113.487-.37.952-.768,1.454-1.114.715-.492,1.183-.28,1.224.584.056,1.161.042,2.324.053,3.487a1.238,1.238,0,0,1-.049.3.538.538,0,0,1-.611.443c-.312-.018-.407-.262-.414-.525-.02-.7-.018-1.4-.032-2.092C766.476,167.8,766.453,167.465,766.433,167Z" transform="translate(-762.057 -165.65)" fill="#fe6b61"/>
          <path id="Path_84" data-name="Path 84" d="M777,168.512c-.036.473-.071.946-.112,1.418a1.007,1.007,0,0,1-.071.425c-.079.128-.236.282-.362.285a.49.49,0,0,1-.389-.255,2.12,2.12,0,0,1-.065-.772c.066-.885.153-1.768.237-2.651a1.542,1.542,0,0,1,.089-.424c.145-.365.4-.434.66-.131.374.443.7.932,1.04,1.4.3.4.6.807.9,1.21l.123-.041.1-2.063c.006-.146,0-.291.011-.437.016-.342.168-.55.54-.534s.574.2.552.577c-.061,1.059-.12,2.119-.2,3.177a2.8,2.8,0,0,1-.2.887c-.255.589-.767.653-1.14.135-.313-.436-.539-.933-.84-1.378a11.267,11.267,0,0,0-.744-.9Z" transform="translate(-766.054 -165.727)" fill="#fe6b61"/>
          <path id="Path_85" data-name="Path 85" d="M787.2,169.466a1.575,1.575,0,0,1-.7,1.331,2.225,2.225,0,0,1-3.341-1.233,17.491,17.491,0,0,1-.127-2.9c0-.322.16-.608.568-.566s.4.342.407.648q.029.958.1,1.915a1.9,1.9,0,0,0,.126.55,1.035,1.035,0,0,0,.984.741.859.859,0,0,0,.852-.75,14.923,14.923,0,0,0,.136-1.942c.018-.493.133-.652.582-.566a.639.639,0,0,1,.434.38,5.709,5.709,0,0,1-.021,2.4Z" transform="translate(-768.071 -165.769)" fill="#fe6b61"/>
          <path id="Path_86" data-name="Path 86" d="M773.23,165.788h0a.387.387,0,0,1-.231.589h-.005a9.107,9.107,0,0,0-.948.118.688.688,0,0,0-.415.4c-.2.768-.166.8.629.865a6.978,6.978,0,0,1,.909.091.45.45,0,0,1,.3.3.425.425,0,0,1-.253.335,9.32,9.32,0,0,1-1.166.076c-.417.014-.49.118-.481.621.007.375.213.414.519.391a7.787,7.787,0,0,1,1-.012.567.567,0,0,1,.555.612c.018.36-.307.364-.531.377-.708.038-1.419.049-2.13.047-.49,0-.654-.354-.479-.949a6.694,6.694,0,0,0,.283-2.487c-.073-.787-.15-1.194.332-1.265s.944-.173,1.418-.246a2.528,2.528,0,0,1,.442-.008A.311.311,0,0,1,773.23,165.788Z" transform="translate(-764.459 -165.64)" fill="#fe6b61"/>
        </g>
        <g id="Group_75" data-name="Group 75" transform="translate(7.379 6.03)">
          <path id="Path_87" data-name="Path 87" d="M783.35,156.164s-1.272-7.464-8.735-7.989c0,0-8.606.359-10.176,7.992,0,0-.551,2.371-.046,3.3l1.467.308,16.582-.406S784.12,159.07,783.35,156.164Z" transform="translate(-764.6 -132.855)" fill="#e6ffff"/>
          <path id="Path_88" data-name="Path 88" d="M764.349,158.3l.427,2.469.908.4,16.44-.169,1.659-.651-.077-.581-.24-1.819Z" transform="translate(-764.622 -134.076)" fill="#bd564f"/>
          <path id="Path_89" data-name="Path 89" d="M775.6,145.559l-.613.975a.508.508,0,0,1-.412.236h-.007a.506.506,0,0,1-.42-.209l-.69-.948Z" transform="translate(-765.479 -132.37)" fill="none" stroke="#fe6b61" stroke-linecap="round" stroke-linejoin="round" stroke-width="1"/>
          <path id="Path_90" data-name="Path 90" d="M774.559,147.544" transform="translate(-765.723 -129.593)" fill="none" stroke="#223468" stroke-linecap="round" stroke-linejoin="round" stroke-width="0.5"/>
          <path id="Path_91" data-name="Path 91" d="M764.375,157.919a9.634,9.634,0,0,1,9.916-9.474,9.53,9.53,0,0,1,5.169,1.617s3.668,2.747,4.167,6.7" transform="translate(-764.626 -132.889)" fill="none" stroke="#fe6b61" stroke-linecap="round" stroke-linejoin="round" stroke-width="1"/>
          <line id="Line_6" data-name="Line 6" x1="19.875" y2="0.142" transform="translate(-0.255 24.242)" fill="none" stroke="#fe6b61" stroke-linecap="round" stroke-linejoin="round" stroke-width="1"/>
          <path id="Path_92" data-name="Path 92" d="M783.865,159.969h0a1.284,1.284,0,0,1-1.247,1.11l-16.937.338a1.284,1.284,0,0,1-1.236-.857l-.123-.349" transform="translate(-764.619 -134.328)" fill="none" stroke="#fe6b61" stroke-linecap="round" stroke-linejoin="round" stroke-width="1"/>
          <path id="Path_93" data-name="Path 93" d="M774.134,142.248s1.377-2.347-.573-3.387-.77-3.133-.77-3.133" transform="translate(-766.632 -132.3)" fill="none" stroke="#fe6b61" stroke-linecap="round" stroke-linejoin="round" stroke-width="1"/>
          <path id="Path_94" data-name="Path 94" d="M779.935,144.506s1-1.709-.417-2.466a1.629,1.629,0,0,1-.561-2.28" transform="translate(-767.414 -132.804)" fill="none" stroke="#fe6b61" stroke-linecap="round" stroke-linejoin="round" stroke-width="1"/>
          <path id="Path_95" data-name="Path 95" d="M762.172,158.246" transform="translate(-762.172 -132.661)" fill="none" stroke="#223468" stroke-linecap="round" stroke-linejoin="round" stroke-width="0.5"/>
          <path id="Path_96" data-name="Path 96" d="M769.566,158.087" transform="translate(-764.292 -132.615)" fill="none" stroke="#223468" stroke-linecap="round" stroke-linejoin="round" stroke-width="0.5"/>
          <line id="Line_7" data-name="Line 7" x1="7.167" y2="0.116" transform="translate(5.114 -3)" fill="none" stroke="#fe6b61" stroke-linecap="round" stroke-linejoin="round" stroke-width="1"/>
        </g>
      </g>
      <g id="Group_77" data-name="Group 77" transform="translate(745.647 145.532)">
        <path id="Path_97" data-name="Path 97" d="M782.781,186.57c0,2.292-1.128,7.346-3.107,7.346H758.263c-1.978,0-4.3-4.877-4.3-7.169Z" transform="translate(-752.883 -165.555)" fill="rgba(254,107,97,0.27)"/>
        <path id="Path_98" data-name="Path 98" d="M752.448,157.109" transform="translate(-752.448 -157.109)" fill="#fff" stroke="#223468" stroke-linecap="round" stroke-linejoin="round" stroke-width="1.923"/>
        <ellipse id="Ellipse_9" data-name="Ellipse 9" cx="2.266" cy="2.055" rx="2.266" ry="2.055" transform="translate(11.625 21.972)" fill="#fe6b61"/>
      </g>
      <path id="Path_99" data-name="Path 99" d="M751.827,130.1v-9.2a3.928,3.928,0,0,1,3.6-4.169h25.656a3.926,3.926,0,0,1,3.6,4.169l-2.021,48.826a3.927,3.927,0,0,1-3.6,4.169H757.65a3.928,3.928,0,0,1-3.6-4.169" transform="translate(-6.623)" fill="none" stroke="#fe6b61" stroke-linecap="round" stroke-linejoin="round" stroke-width="2"/>
      <g id="Group_78" data-name="Group 78" transform="translate(728.726 144.72)">
        <path id="Path_100" data-name="Path 100" d="M760.151,159.487c0-.007-.006-.013-.007-.019a1.456,1.456,0,0,0-.118-.287.676.676,0,0,0-.043-.063,1.611,1.611,0,0,0-.145-.208,1.3,1.3,0,0,0-.112-.1,1.761,1.761,0,0,0-.138-.126,1.674,1.674,0,0,0-.21-.123c-.034-.017-.063-.04-.1-.056a1.826,1.826,0,0,0-.359-.118l-2.119-.46c-.18-.039-.382-.088-.592-.143l-.092-.024q-.324-.083-.67-.182h0c-.82-.233-1.7-.514-2.31-.751,0,0-3.314-1.278-4.412-.709-3.918,2.035-10.917,9.493-10.917,9.493a9.619,9.619,0,0,0-1.861,3.236L732.39,187.78l-2.635,3.838a5.863,5.863,0,0,0,.062,6.729l13.816,12.774c.931-1.487-.022,2.094.573,1.229,1.654-2.4,2.821-9.093,4.653-10.484a2.012,2.012,0,0,0,.478-.362s.931-.977,1.864-7.554c2.239-15.755-4.348-21.869-4.348-21.869a2.56,2.56,0,0,1-.466-2.977l4.064-3.962c.517-.919,2.286-.344,3.333-.216a8.585,8.585,0,0,0,4.54-1.069,3.783,3.783,0,0,0,1.758-3.283.345.345,0,0,0,.011-.041h0a.127.127,0,0,1,.01-.037,1.981,1.981,0,0,0,.085-.323v-.006A1.6,1.6,0,0,0,760.151,159.487Z" transform="translate(-728.726 -155.97)" fill="#f79f7c"/>
      </g>
      <path id="Path_101" data-name="Path 101" d="M765.094,197.654s-3.689,13.584-10.384,15.993l-3.921,9.268" transform="translate(-6.325 -23.201)" fill="none" stroke="#191a1b" stroke-linecap="round" stroke-linejoin="round" stroke-width="2"/>
      <path id="Path_102" data-name="Path 102" d="M767.177,162.123a1.941,1.941,0,0,1-.085.318.121.121,0,0,1-.01.036h0a.125.125,0,0,1-.011.041,3.7,3.7,0,0,1-1.758,3.231,8.7,8.7,0,0,1-4.54,1.051c-1.046-.126-2.816-.692-3.333.213l-4.064,3.9a2.492,2.492,0,0,0,.466,2.93" transform="translate(-6.985 -13.014)" fill="none" stroke="#191a1b" stroke-linecap="round" stroke-linejoin="round" stroke-width="2"/>
      <path id="Path_103" data-name="Path 103" d="M799.462,154.872" transform="translate(-20.279 -10.935)" fill="#ef8a4d"/>
      <path id="Path_104" data-name="Path 104" d="M794.954,163.2" transform="translate(-18.987 -13.323)" fill="none" stroke="#223468" stroke-linecap="round" stroke-linejoin="round" stroke-width="1.923"/>
      <path id="Path_105" data-name="Path 105" d="M796.374,172.177l2.889-.943s3.425-1.074,1.932-4.851" transform="translate(-19.394 -14.236)" fill="none" stroke="#191a1b" stroke-linecap="round" stroke-linejoin="round" stroke-width="2"/>
      <path id="Path_106" data-name="Path 106" d="M795.506,182.194c3.027-1.559,2.955-.412,3.875-3.742" transform="translate(-19.275 -17.3)" fill="none" stroke="#191a1b" stroke-linecap="round" stroke-linejoin="round" stroke-width="2"/>
    </g>
    <path id="Path_107" data-name="Path 107" d="M0,1H104V91H0Z" transform="translate(1044 4715)" fill="none"/>
  </g>
</svg>
