<svg xmlns="http://www.w3.org/2000/svg" width="104" height="92" viewBox="0 0 104 92"><defs><style>.a{fill:#bfe1c6;}.b{fill:#e6ffff;}.b,.c,.d,.e,.f,.g,.h,.j,.k{fill-rule:evenodd;}.c{fill:#f58558;}.d{fill:#ffd751;}.e{fill:#fca1a8;}.f{fill:#f67d5c;}.g{fill:#fff;}.h{fill:#54b849;}.i,.l,.o{fill:none;}.i{stroke:#002970;stroke-width:2px;}.i,.l{stroke-linecap:round;stroke-linejoin:round;}.j{fill:#ea2426;}.k{fill:#66d6ff;}.l{stroke:#223468;stroke-width:1.711px;}.m{fill:#fff09f;}.n{fill:#f5e486;mix-blend-mode:multiply;isolation:isolate;}</style></defs><g transform="translate(14254 4016)"><g transform="translate(-14427.488 -4459.901)"><path class="a" d="M257.919,484.592"/><path class="a" d="M242.626,484.592"/><path class="b" d="M273.428,481.869v-2.738a1.019,1.019,0,0,0-1.017-1.019H241a1.018,1.018,0,0,0-1.013,1.019v2.738a.26.26,0,0,0,.256.262h32.92a.261.261,0,0,0,.257-.262Z"/><path class="c" d="M239.7,495.59a16.712,16.712,0,0,0-4.021-10.365,13.166,13.166,0,0,0-18.6-.855q-.448.41-.855.855a16.677,16.677,0,0,0-4.013,10.377c8.367,8.122,17.371,9.806,27.491-.012Z"/><path class="d" d="M216.511,510.87l2.589-.368-2.635-18.7-2.584.369,2.634,18.709Zm17.135-1.735,2.874-18.676-2.584-.4-2.878,18.671,2.584.4Zm-4.475-4.822,1.478-16.831-2.608-.233-1.189,13.517v-15.98h-2.617v18.895H226.6l-.036.4,2.607.231ZM221,504.19l2.6-.257L222.153,489.3l-2.6.257,1.454,14.628Z"/><path class="e" d="M233.841,517.944l.256-.219,2.915-22.107h-2.184c-.548,0-.82.094-.926.651a6.113,6.113,0,0,1-2.2,3.2,9.72,9.72,0,0,1-11.486,0A6.078,6.078,0,0,1,218,496.2a.67.67,0,0,0-.7-.581h-2.2l2.84,22.2.141.123Z"/><path class="e" d="M236.62,517.945l3.09-22.328h-3.269L233.6,517.945Zm-18.311,0-2.838-22.328H212.2l3.172,22.328Z"/><path class="d" d="M214.433,516.159h0v-.508a.839.839,0,0,0-.8-.872.713.713,0,0,0-.113,0h-27.1c-.582,0-.677.342-.677.66v.717h0c0,1.968,2,2.83,4.459,2.83h19.777C212.436,518.989,214.433,518.127,214.433,516.159Z"/><path class="f" d="M214.989,513.057v.216a1.5,1.5,0,0,1-1.5,1.5h-26.8a1.5,1.5,0,0,1-1.5-1.5v-.216a1.506,1.506,0,0,1,1.5-1.506h26.8a1.506,1.506,0,0,1,1.5,1.506Z"/><path class="g" d="M200.648,511.029l-3.981,3.086-3.982-3.086A32.053,32.053,0,0,1,200.648,511.029Z"/><path class="h" d="M201.132,512.109a4.11,4.11,0,0,0,.389-.14c.057-.023.113-.046.161-.07s.1-.043.14-.066a2.793,2.793,0,0,1,.441-.176,2.36,2.36,0,0,1,.615-.07,2.4,2.4,0,0,1,.643.075,1.578,1.578,0,0,1,.219.076l.246.1c.1.041.194.091.311.138a3.51,3.51,0,0,0,.4.139,4.305,4.305,0,0,0,2.151,0,3.6,3.6,0,0,0,.4-.139c.057-.025.111-.05.162-.071s.1-.045.146-.067c.1-.044.163-.076.238-.105a1.58,1.58,0,0,1,.213-.075,2.669,2.669,0,0,1,1.238,0,1.7,1.7,0,0,1,.218.075c.039.015.077.032.115.051s.08.032.123.054c.086.042.2.094.315.14a3.425,3.425,0,0,0,.406.14,4.137,4.137,0,0,0,1.09.134,3.9,3.9,0,0,0,1.08-.137,3.548,3.548,0,0,0,.4-.139l.163-.071c.053-.022.1-.045.144-.067.1-.044.166-.076.238-.105a1.644,1.644,0,0,1,.214-.075,2.281,2.281,0,0,1,.615-.073.847.847,0,1,0,.054-1.693h-.054a4.045,4.045,0,0,0-1.078.137,3.962,3.962,0,0,0-.4.138l-.166.072-.144.068c-.093.043-.163.075-.238.105a1.8,1.8,0,0,1-.213.076,2.24,2.24,0,0,1-.615.071,2.42,2.42,0,0,1-.645-.073c-.073-.022-.144-.045-.218-.075s-.146-.061-.246-.1-.195-.09-.308-.14c-.133-.053-.267-.1-.4-.138a3.823,3.823,0,0,0-2.549.141c-.059.023-.117.046-.165.07s-.1.046-.146.068c-.093.043-.163.075-.239.105a1.77,1.77,0,0,1-.211.076,2.692,2.692,0,0,1-1.237,0,1.874,1.874,0,0,1-.218-.076l-.115-.049-.123-.056c-.086-.04-.2-.093-.315-.141a3.871,3.871,0,0,0-.406-.137,4.051,4.051,0,0,0-1.09-.135,3.731,3.731,0,0,0-1.771.408c-.1.043-.165.075-.238.106a2.173,2.173,0,0,1-.209.076,2.1,2.1,0,0,1-.579.076,2.322,2.322,0,0,1-.6-.078c-.073-.023-.144-.049-.214-.078-.035-.014-.074-.033-.113-.05l-.123-.057c-.086-.041-.194-.091-.31-.137a3.633,3.633,0,0,0-.4-.137,4.328,4.328,0,0,0-2.139,0,3.6,3.6,0,0,0-.4.141c-.059.023-.115.046-.166.07s-.1.046-.141.068c-.1.043-.163.075-.245.105a1.963,1.963,0,0,1-.211.076,2.729,2.729,0,0,1-1.239,0,1.923,1.923,0,0,1-.213-.076c-.071-.03-.141-.061-.239-.105s-.193-.091-.309-.14a3.217,3.217,0,0,0-.4-.138,3.959,3.959,0,0,0-1.077-.137,4.079,4.079,0,0,0-1.089.135,3.947,3.947,0,0,0-.41.137c-.123.051-.227.1-.313.141s-.166.074-.245.105-.142.055-.214.077a2.77,2.77,0,0,1-1.242,0c-.071-.024-.141-.047-.213-.077s-.141-.061-.237-.105-.194-.09-.309-.137a3.594,3.594,0,0,0-.4-.141,4.024,4.024,0,0,0-1.075-.137.847.847,0,0,0,0,1.693,2.365,2.365,0,0,1,.616.073,1.554,1.554,0,0,1,.211.075c.071.028.143.062.239.106s.192.086.307.138a3.86,3.86,0,0,0,.4.139,4.317,4.317,0,0,0,2.154,0,3.5,3.5,0,0,0,.4-.139c.061-.025.115-.05.166-.07l.141-.068c.1-.041.166-.073.246-.1a1.616,1.616,0,0,1,.219-.075,2.456,2.456,0,0,1,.644-.076,2.329,2.329,0,0,1,.616.073,1.631,1.631,0,0,1,.213.075c.07.028.141.062.237.105s.195.086.31.139a3.588,3.588,0,0,0,.4.139,4.309,4.309,0,0,0,2.152,0,3.541,3.541,0,0,0,.4-.139l.165-.071c.05-.02.1-.045.145-.067.1-.044.163-.076.239-.105a1.594,1.594,0,0,1,.21-.075,2.322,2.322,0,0,1,.615-.073,2.408,2.408,0,0,1,.616.07c.073.023.141.046.214.074s.141.061.234.1.188.086.3.136a3.615,3.615,0,0,0,1.457.285,3.913,3.913,0,0,0,1.054-.145Z"/><path class="d" d="M215.593,508.911v-1.059c0-6.539-5.475-11.015-12.225-11.015H196.8c-6.751,0-12.227,4.476-12.227,11.015v1.059a1.767,1.767,0,0,0,1.79,1.736h27.441a1.763,1.763,0,0,0,1.79-1.736Z"/><path class="b" d="M250.322,507.895l13.521-59a1.54,1.54,0,0,1,2.994.685l-13.521,58.994a1.54,1.54,0,0,1-3.018-.6c.006-.03.013-.061.02-.091Z"/><path class="i" d="M266.871,449.083l-6.546,28.432"/><path class="j" d="M250.863,505.418l.727-3.18,3.692-2.318-.728,3.185-3.692,2.31Zm1.65-7.2.729-3.18,3.692-2.319-.728,3.185-3.693,2.31Zm1.647-7.2.738-3.185,3.692-2.31-.732,3.18-3.691,2.316Z"/><path class="g" d="M268.374,520.533l3.38-38.4H241.662l3.279,38.446a1,1,0,0,0,.993,1.012h21.285a1.063,1.063,0,0,0,1.151-.967v0A.634.634,0,0,0,268.374,520.533Z"/><path class="k" d="M241.663,482.13l3.279,38.446a1,1,0,0,0,.993,1.012H267.22a1.063,1.063,0,0,0,1.152-.967v-.088h0l3.379-38.4H256.93"/><path class="l" d="M214.035,495.876"/><path class="i" d="M243.281,501.275l1.661,19.3a1,1,0,0,0,.993,1.012H267.22a1.063,1.063,0,0,0,1.152-.967v-.088h0l3.379-38.4h-7.658"/><path class="b" d="M265.689,525.444h7.357l2.139-7.408h-98.7l2.139,7.4h87.06Z"/><path class="i" d="M185.986,518.036h-9.5l2.139,7.4h94.416l1.151-4.573.635-2.523"/><circle class="m" cx="4.447" cy="4.447" r="4.447" transform="translate(221.093 504.382)"/><circle class="n" cx="0.632" cy="0.632" r="0.632" transform="translate(196.467 504.366)"/><circle class="n" cx="0.632" cy="0.632" r="0.632" transform="translate(187.499 505.167)"/><circle class="n" cx="0.632" cy="0.632" r="0.632" transform="translate(194.082 499.206)"/><circle class="n" cx="0.632" cy="0.632" r="0.632" transform="translate(205.722 498.771)"/><circle class="n" cx="0.632" cy="0.632" r="0.632" transform="translate(211.316 506.403)"/><circle class="n" cx="0.632" cy="0.632" r="0.632" transform="translate(202.42 504.02)"/></g><path class="o" d="M0,1H104V93H0Z" transform="translate(-14254 -4017)"/></g></svg>