<svg xmlns="http://www.w3.org/2000/svg" width="100" height="100" viewBox="0 0 100 100">
  <g id="img-5" transform="translate(-1032 -3777)">
    <path id="Path_69" data-name="Path 69" d="M0,1H100V101H0Z" transform="translate(1032 3776)" fill="none"/>
    <g id="Group_71" data-name="Group 71" transform="translate(1047.536 3794.385)">
      <g id="Group_70" data-name="Group 70" transform="translate(-4.253 -5.807)">
        <g id="Group_68" data-name="Group 68" transform="translate(6.334 5.666)">
          <circle id="Ellipse_6" data-name="Ellipse 6" cx="35.192" cy="35.192" r="35.192" transform="translate(0 0)" fill="#fff"/>
        </g>
        <path id="Path_70" data-name="Path 70" d="M35.711,0a35.716,35.716,0,0,1,8.432,70.421,35.246,35.246,0,0,1-8.432,1,36.554,36.554,0,0,1-6.408-.573A35.716,35.716,0,0,1,9.845,11.089,35.2,35.2,0,0,1,16.5,5.578a34.534,34.534,0,0,1,4.821-2.59" transform="translate(70.543 81.716) rotate(-171)" fill="none" stroke="#191a1b" stroke-linecap="round" stroke-width="3"/>
        <g id="Group_69" data-name="Group 69" transform="translate(25.285 26.425)">
          <ellipse id="Ellipse_7" data-name="Ellipse 7" cx="2.856" cy="3.895" rx="2.856" ry="3.895" transform="translate(0 0)" fill="#fe6b61"/>
          <ellipse id="Ellipse_8" data-name="Ellipse 8" cx="2.856" cy="3.895" rx="2.856" ry="3.895" transform="translate(25.433 0)" fill="#fe6b61"/>
        </g>
        <path id="Path_71" data-name="Path 71" d="M922.5,614.241a20.507,20.507,0,0,1-38.45-.178" transform="translate(-862.42 -566.164)" fill="none" stroke="#223368" stroke-linecap="round" stroke-linejoin="round" stroke-width="3"/>
      </g>
      <path id="Path_72" data-name="Path 72" d="M928.178,639.588s-16.383,4.322-22.338,4.322-22.34-4.322-22.34-4.322c-2.792-.92-4.738-2.829-4.738-5.446v-17.42c0-2.617,2.1-4.462,4.738-5.505,0,0,16.383-3.086,22.34-3.086s22.338,3.086,22.338,3.086a5.458,5.458,0,0,1,4.74,5.5v17.421C932.918,636.759,930.85,638.762,928.178,639.588Z" transform="translate(-869.235 -574.845)" fill="#fe6b61"/>
      <line id="Line_3" data-name="Line 3" y1="3.065" x2="10.961" transform="translate(3.949 42.093)" fill="none" stroke="#191a1b" stroke-linecap="round" stroke-linejoin="round" stroke-width="2"/>
      <line id="Line_4" data-name="Line 4" x2="8.187" y2="2.345" transform="translate(5.836 51.335)" fill="none" stroke="#191a1b" stroke-linecap="round" stroke-linejoin="round" stroke-width="2"/>
      <path id="Path_73" data-name="Path 73" d="M8.263,2.512,0,0" transform="translate(61.86 42.093)" fill="none" stroke="#191a1b" stroke-linecap="round" stroke-width="2"/>
      <line id="Line_5" data-name="Line 5" x1="5.199" y2="2.617" transform="translate(61.86 52.835)" fill="none" stroke="#191a1b" stroke-linecap="round" stroke-linejoin="round" stroke-width="2"/>
    </g>
  </g>
</svg>
