<svg xmlns="http://www.w3.org/2000/svg" width="104" height="92" viewBox="0 0 104 92"><defs><style>.a{fill:#e6ffff;}.b{fill:#66d6ff;}.c{fill:#e7f0f9;}.d{fill:#97d729;}.e{fill:#82bd1c;}.f{fill:#f58558;}.g,.p,.q,.r,.s{fill:none;}.g,.r{stroke:#002970;}.g,.p,.q,.r{stroke-linecap:round;stroke-linejoin:round;}.g{stroke-width:1.2px;}.h,.k{fill:#fff;}.h{opacity:0.234;}.i{fill:#57c585;}.j{fill:#fff09f;}.l{fill:#ffd751;}.m{fill:#1d8f46;}.n{fill:#0f9841;}.o{fill:#00a23c;}.p{stroke:#223468;stroke-width:1.698px;}.q{stroke:#223368;stroke-width:3px;}.r{stroke-width:2px;}</style></defs><g transform="translate(-292 -4716)"><g transform="translate(253.801 4267.921)"><path class="a" d="M89.411,454.079a38.734,38.734,0,1,1-38.734,38.734h0A38.734,38.734,0,0,1,89.411,454.079Z"/><path class="b" d="M89.411,465.978a26.835,26.835,0,1,1-26.835,26.835h0A26.836,26.836,0,0,1,89.411,465.978Z"/><path class="b" d="M23.3,0A23.3,23.3,0,1,1,0,23.3,23.3,23.3,0,0,1,23.3,0Z" transform="translate(66.112 469.513)"/><circle class="c" cx="19.863" cy="19.863" r="19.863" transform="translate(70.344 472.95)"/><path class="d" d="M75.233,471.969c2.037.87,2.756,3.758,2.756,3.758s-2.583,1.477-4.62.607-2.757-3.758-2.757-3.758,2.583-1.477,4.62-.608Z"/><path class="e" d="M73.371,476.335c2.037.869,4.62-.608,4.62-.608l-7.376-3.15S71.333,475.465,73.371,476.335Z"/><path class="f" d="M90.983,520.123a28.408,28.408,0,0,1-28.375-28.375,3.539,3.539,0,0,1,7.078,0,21.322,21.322,0,0,0,21.3,21.3,3.539,3.539,0,0,1,0,7.078Z"/><path class="g" d="M94.523,516.584a3.538,3.538,0,0,1-3.539,3.539h0A28.369,28.369,0,0,1,67.461,507.6"/><path class="f" d="M91.147,515.66a1.3,1.3,0,1,0,.237-2.593,3.8,3.8,0,0,0-.4-.022,21.322,21.322,0,0,1-21.3-21.3,3.545,3.545,0,0,0-.025-.424,1.471,1.471,0,0,0-2.926.277C67.145,504.87,76.98,515.026,91.147,515.66Z"/><ellipse class="h" cx="1.361" cy="3.218" rx="1.361" ry="3.218" transform="translate(62.6 494.064) rotate(-9.849)"/><circle class="h" cx="0.755" cy="0.755" r="0.755" transform="translate(65.069 501.879)"/><path class="i" d="M106.808,507.863c4,.609,9.017-3.443,9.017-3.443s-3.588-5.364-7.583-5.972-7.556,1.005-7.952,3.606S102.813,507.256,106.808,507.863Z"/><path class="j" d="M71.14,491.594a5.764,5.764,0,0,0,4.51,3.64,10.522,10.522,0,0,0,1.107.092,4.222,4.222,0,0,1,1.586.264c1.027.5,1.294,1.993,1.553,3.435q.046.263.095.518a14.943,14.943,0,0,0,2.512,5.914,4.26,4.26,0,0,0,2.458,1.858,3.245,3.245,0,0,0,2.983-1.063,3.816,3.816,0,0,0,.333-.679,8.39,8.39,0,0,0,.156-4.026l-1.191.161a5.674,5.674,0,0,1-.138,2.555,2.262,2.262,0,0,1-.629.9,1.726,1.726,0,0,1-1.67,1.086,2.523,2.523,0,0,1-1.353-1.145,13.155,13.155,0,0,1-2.207-5.205c-.031-.165-.061-.333-.092-.5-.306-1.7-.687-3.822-2.531-4.725a5.707,5.707,0,0,0-2.3-.448,9.191,9.191,0,0,1-.923-.073,3.99,3.99,0,0,1-3.08-2.486,1.481,1.481,0,0,1-.116-.818,1.214,1.214,0,0,1,.535-.647.165.165,0,0,1,.007-.058,1.26,1.26,0,0,1,.588-.686,3.579,3.579,0,0,1,3.389.087,12.2,12.2,0,0,1,3.148,2.656l2.576,2.717.692-.641-2.473-2.608a13.714,13.714,0,0,0-3.648-3.027,5.748,5.748,0,0,0-4.067-.493,4.294,4.294,0,0,0-1.126.491,3.757,3.757,0,0,0-.609.479,2.522,2.522,0,0,0-.244.614A3.137,3.137,0,0,0,71.14,491.594Z"/><path class="k" d="M108.82,479.3a7.6,7.6,0,0,0-10.476-6.579,8.58,8.58,0,0,1-6.325.069,9.731,9.731,0,0,0-10.772,15.525,10.481,10.481,0,0,1,2.683,6.147c.009.114.019.229.03.343a11.716,11.716,0,1,0,23.073-3.826,10.968,10.968,0,0,1,.905-7.642A7.565,7.565,0,0,0,108.82,479.3Z"/><circle class="l" cx="6.729" cy="6.729" r="6.729" transform="translate(87.464 482.194)"/><path class="l" d="M89.8,488.923A6.731,6.731,0,0,1,95.36,482.3a6.729,6.729,0,1,0,0,13.252,6.729,6.729,0,0,1-5.562-6.626Z"/><path class="m" d="M51.989,487.865c-1.556,1.53-2.61,2.9-.945,2.369,3.082-.976,43.94-23.3,43.94-23.3l-1.273-1.361C87.562,468.926,60.8,483.5,51.989,487.865Z"/><path class="i" d="M92.461,464.236s-28.122,14.447-36.772,20.428a37.422,37.422,0,0,0-3.7,3.2c8.811-4.369,35.573-18.939,41.721-22.292Z"/><path class="n" d="M58.48,488.7c-1.556,1.531-2.61,2.9-.946,2.37,3.083-.977,43.94-23.3,43.94-23.3l-1.274-1.361C94.055,469.766,67.291,484.338,58.48,488.7Z"/><path class="i" d="M98.95,465.075s-28.121,14.449-36.771,20.43a37.425,37.425,0,0,0-3.7,3.2c8.811-4.368,35.573-18.939,41.721-22.292Z"/><path class="o" d="M54.553,483.214c-1.556,1.531-2.61,2.9-.945,2.37,3.082-.977,43.94-23.3,43.94-23.3l-1.273-1.361C90.126,464.277,63.365,478.845,54.553,483.214Z"/><path class="i" d="M95.025,459.586S66.9,474.033,58.253,480.014a37.425,37.425,0,0,0-3.7,3.2c8.811-4.369,35.573-18.939,41.721-22.292Z"/><path class="n" d="M87.809,459.031l-.163.138,2.221,1.2A61.652,61.652,0,0,0,78.062,467.5c-4.873,3.873-19.67,20.714-22.745,24.233l1.131,1.337s17.861-20.55,23.31-24.881a61.65,61.65,0,0,1,11.805-7.134Z"/><path class="i" d="M89.867,460.366l-2.221-1.2c-1.977,1.669-21.634,18.3-26.243,23.43-4.854,5.4-6.9,8.171-6.9,8.171l.815.963c3.074-3.518,18.351-19.972,23.224-23.845A89.07,89.07,0,0,1,89.867,460.366Z"/><path class="p" d="M55.316,491.733"/><path class="p" d="M87.646,459.169"/><path class="q" d="M50.677,492.813"/><path class="r" d="M89.411,454.079A38.734,38.734,0,1,1,58.74,516.472"/></g><path class="s" d="M0,1H104V93H0Z" transform="translate(292 4715)"/></g></svg>