<svg xmlns="http://www.w3.org/2000/svg" width="104" height="92" viewBox="0 0 104 92">
  <g id="img-9" transform="translate(14342 4085)">
    <path id="Path_108" data-name="Path 108" d="M0,1H104V93H0Z" transform="translate(-14342 -4086)" fill="none"/>
    <g id="Group_84" data-name="Group 84" transform="translate(-14338 -4077.787)">
      <g id="Group_83" data-name="Group 83">
        <path id="Path_109" data-name="Path 109" d="M367.432,553.429s8.16-27.944-4.561-49.72a3.5,3.5,0,0,1,2.981-5.31h50.871a8.265,8.265,0,0,1,6.3,2.932c4.812,5.663,12.987,27.151,4.653,52.1" transform="translate(-348.541 -480.056)" fill="#a8f5c8"/>
        <g id="Group_81" data-name="Group 81" transform="translate(59.725)">
          <circle id="Ellipse_10" data-name="Ellipse 10" cx="18.343" cy="18.343" r="18.343" transform="translate(0 0)" fill="#fe6b61"/>
          <g id="Group_80" data-name="Group 80" transform="translate(11.759 11.759)">
            <line id="Line_8" data-name="Line 8" x2="13.169" y2="13.169" stroke-width="3.185" stroke="#fff" stroke-linecap="round" stroke-linejoin="round" fill="none"/>
            <line id="Line_9" data-name="Line 9" x1="13.169" y2="13.169" stroke-width="3.185" stroke="#fff" stroke-linecap="round" stroke-linejoin="round" fill="none"/>
          </g>
        </g>
        <path id="Path_110" data-name="Path 110" d="M366.864,515.521H350.386a20.944,20.944,0,0,1,10.1-13.221" transform="translate(-350.386 -479.456)" fill="none" stroke="#191a1b" stroke-linecap="round" stroke-linejoin="round" stroke-width="2.5"/>
        <g id="Group_82" data-name="Group 82" transform="translate(-854 -4716.213)">
          <path id="Path_111" data-name="Path 111" d="M280.792,413.266l-1.013-.413a8.078,8.078,0,0,0-5.57-.194l-1.376.454a5.634,5.634,0,0,1-3.571-.007l-1.427-.475a8.1,8.1,0,0,0-5.34.084l-1.2.444a5.681,5.681,0,0,1-3.93,0l-2.4-.884a1.195,1.195,0,1,0-.828,2.241l2.4.884a8.053,8.053,0,0,0,5.581,0l1.2-.442a5.72,5.72,0,0,1,3.761-.06l1.428.476a7.984,7.984,0,0,0,5.07.008l1.374-.453a5.681,5.681,0,0,1,3.924.138l1.017.413a1.194,1.194,0,0,0,.9-2.211" transform="translate(637.986 4347.399)" fill="#191a1b"/>
          <path id="Path_112" data-name="Path 112" d="M917.346,4752.51l-6.064-4.345H900.357l-6.109,3.488-.758,3.918h23.855Z" fill="#fff09f"/>
          <path id="Path_113" data-name="Path 113" d="M917.346,4752.51l-6.064-4.345H900.357l-6.109,3.488-.758,3.918h23.855Z" transform="translate(1810.836 9522.738) rotate(180)" fill="#fff09f"/>
          <path id="Path_114" data-name="Path 114" d="M255.818,398.889h24.923a1.191,1.191,0,0,0,1.177-1.387c-.862-5.251-5.377-8.779-11.233-8.779H265.87c-5.855,0-10.371,3.529-11.229,8.779a1.191,1.191,0,0,0,1.177,1.387m10.052-7.78h4.815c4.163,0,7.367,2.076,8.527,5.4H257.347c1.157-3.319,4.362-5.4,8.524-5.4" transform="translate(637.416 4357.988)" fill="#191a1b"/>
          <path id="Path_115" data-name="Path 115" d="M280.7,423.751H256.03a1.193,1.193,0,0,0-1.162,1.459,11.426,11.426,0,0,0,11.119,8.861h.355l4.813-.15a11.438,11.438,0,0,0,10.7-8.686,1.2,1.2,0,0,0-1.16-1.479m-9.618,7.779-4.812.15a9.026,9.026,0,0,1-8.6-5.544H279.04a9.039,9.039,0,0,1-7.958,5.394" transform="translate(637.32 4342.188)" fill="#191a1b"/>
        </g>
      </g>
      <line id="Line_10" data-name="Line 10" x2="73.217" transform="translate(12.788 73.372)" fill="none" stroke="#191a1b" stroke-linecap="round" stroke-linejoin="round" stroke-width="2.5"/>
    </g>
  </g>
</svg>
